<?xml version="1.0" encoding="UTF-8" standalone="no"?><svg xmlns="http://www.w3.org/2000/svg" xmlns:xlink="http://www.w3.org/1999/xlink" fill="#000000" height="1932.2" preserveAspectRatio="xMidYMid meet" version="1" viewBox="-7.4 -7.4 2992.8 1932.2" width="2992.8" zoomAndPan="magnify"><defs><clipPath id="a"><path d="M 1082 1568 L 1385 1568 L 1385 1898.101562 L 1082 1898.101562 Z M 1082 1568"/></clipPath><clipPath id="b"><path d="M 2290 36 L 2985.488281 36 L 2985.488281 1013 L 2290 1013 Z M 2290 36"/></clipPath></defs><g><g id="change1_1"><path d="M 1007.421875 1392.421875 L 857.878906 1593.300781 C 826.175781 1635.890625 835.082031 1696.671875 877.664062 1728.371094 L 888.171875 1736.191406 C 905.390625 1749.011719 925.578125 1755.191406 945.621094 1755.191406 C 975.144531 1755.191406 1004.351562 1741.769531 1023.238281 1716.398438 L 1172.78125 1515.519531 C 1204.480469 1472.941406 1195.578125 1412.160156 1152.988281 1380.460938 L 1142.488281 1372.640625 C 1125.269531 1359.820312 1105.078125 1353.640625 1085.039062 1353.640625 C 1055.511719 1353.640625 1026.300781 1367.058594 1007.421875 1392.421875" fill="#000000"/></g><g clip-path="url(#a)" id="change1_8"><path d="M 1201.808594 1603.390625 L 1099.839844 1740.371094 C 1071.53125 1778.390625 1079.480469 1832.660156 1117.511719 1860.96875 L 1144.601562 1881.128906 C 1159.96875 1892.578125 1178 1898.101562 1195.890625 1898.101562 C 1222.261719 1898.101562 1248.339844 1886.121094 1265.199219 1863.46875 L 1367.171875 1726.488281 C 1395.46875 1688.46875 1387.519531 1634.199219 1349.5 1605.890625 L 1322.410156 1585.71875 C 1307.03125 1574.28125 1289.011719 1568.761719 1271.109375 1568.761719 C 1244.75 1568.761719 1218.671875 1580.738281 1201.808594 1603.390625" fill="#000000"/></g><g id="change1_2"><path d="M 656.492188 1156.128906 L 615.363281 1125.511719 C 601.550781 1115.230469 585.355469 1110.269531 569.273438 1110.269531 C 545.585938 1110.28125 522.152344 1121.039062 507.003906 1141.390625 L 438.371094 1233.578125 C 412.9375 1267.75 420.082031 1316.511719 454.246094 1341.941406 L 495.375 1372.558594 C 509.1875 1382.839844 525.382812 1387.800781 541.460938 1387.800781 C 565.148438 1387.800781 588.582031 1377.03125 603.730469 1356.679688 L 672.363281 1264.488281 C 697.796875 1230.328125 690.65625 1181.558594 656.492188 1156.128906" fill="#000000"/></g><g id="change1_3"><path d="M 960.730469 1170.390625 C 942.308594 1156.679688 920.71875 1150.058594 899.277344 1150.070312 C 867.695312 1150.070312 836.449219 1164.421875 816.253906 1191.550781 L 633.75 1436.699219 C 599.839844 1482.261719 609.367188 1547.269531 654.917969 1581.179688 C 673.335938 1594.890625 694.929688 1601.5 716.367188 1601.5 C 744.855469 1601.5 773.0625 1589.820312 793.140625 1567.621094 C 796.164062 1562.46875 799.484375 1557.429688 803.128906 1552.539062 L 889.796875 1436.128906 L 952.6875 1351.660156 C 956.996094 1345.871094 961.703125 1340.390625 966.738281 1335.21875 L 981.894531 1314.859375 C 1015.800781 1269.308594 1006.28125 1204.300781 960.730469 1170.390625" fill="#000000"/></g><g id="change1_4"><path d="M 446.5625 26.511719 L 6.585938 813.820312 C -7.359375 838.769531 1.566406 870.296875 26.511719 884.234375 L 178.480469 969.160156 C 203.429688 983.101562 234.953125 974.179688 248.894531 949.234375 L 688.871094 161.917969 C 702.8125 136.976562 693.890625 105.453125 668.945312 91.503906 L 516.972656 6.578125 C 492.027344 -7.363281 460.5 1.558594 446.5625 26.511719" fill="#000000"/></g><g clip-path="url(#b)" id="change1_7"><path d="M 2296.625 198.328125 L 2736.613281 985.644531 C 2750.550781 1010.585938 2782.070312 1019.507812 2807.019531 1005.566406 L 2958.988281 920.644531 C 2983.933594 906.703125 2992.851562 875.179688 2978.914062 850.230469 L 2538.945312 62.910156 C 2524.988281 37.964844 2493.484375 29.042969 2468.519531 42.980469 L 2316.550781 127.917969 C 2291.605469 141.859375 2282.6875 173.382812 2296.625 198.328125" fill="#000000"/></g><g id="change1_5"><path d="M 2476.1875 1264.953125 C 2477.40625 1228.621094 2460.398438 1194.0625 2431.429688 1172.101562 L 2203.097656 999.074219 C 2120.566406 940.914062 2017.625 874.28125 1897.128906 801.035156 C 1727.253906 697.753906 1567.132812 608.386719 1492.90625 567.578125 C 1481.316406 561.207031 1467.738281 559.53125 1454.945312 562.882812 L 1371.507812 584.753906 C 1359.238281 587.96875 1348.558594 595.511719 1341.417969 605.992188 L 1341.328125 606.132812 C 1318.1875 640.035156 1292.445312 671.160156 1264.816406 698.632812 C 1232.386719 730.878906 1197.96875 757.65625 1162.539062 778.214844 C 1120.019531 802.878906 1076.257812 818.429688 1032.445312 824.433594 C 1022.746094 825.765625 1012.996094 826.4375 1003.46875 826.4375 C 969.09375 826.4375 937.066406 817.625 910.859375 800.945312 C 877.273438 779.578125 855.730469 748.269531 848.570312 710.402344 C 840.285156 666.609375 851.625 616.59375 883.226562 557.488281 C 905.488281 515.863281 933.246094 477.808594 953.519531 450.023438 C 958.496094 443.199219 962.796875 437.304688 966.234375 432.421875 C 980.195312 412.578125 996.476562 389.886719 1014.71875 366.136719 C 1019.367188 360.058594 1014.445312 351.378906 1006.859375 352.246094 C 968.546875 356.652344 881.859375 352.335938 745.519531 267.832031 C 733.402344 260.324219 717.46875 264.441406 710.511719 276.890625 L 332.5625 953.207031 C 324.628906 967.402344 326.554688 985.070312 337.359375 997.222656 L 437.5625 1109.953125 C 438.949219 1111.511719 440.5 1112.910156 442.1875 1114.121094 L 452.242188 1100.621094 C 466.019531 1082.121094 484.25 1066.984375 504.964844 1056.863281 C 524.851562 1047.140625 547.089844 1042.011719 569.28125 1042 C 584.59375 1042 599.71875 1044.390625 614.234375 1049.101562 C 629.292969 1053.980469 643.390625 1061.273438 656.128906 1070.75 L 697.257812 1101.371094 C 713.003906 1113.089844 726.003906 1127.613281 735.894531 1144.53125 C 738.21875 1148.5 740.347656 1152.570312 742.269531 1156.710938 C 744.832031 1162.230469 752.351562 1163.011719 755.980469 1158.132812 L 761.445312 1150.78125 C 777.65625 1129.011719 799.066406 1111.210938 823.4375 1099.300781 C 846.863281 1087.851562 873.515625 1081.800781 899.117188 1081.800781 C 917.035156 1081.800781 935.035156 1084.601562 952.117188 1090.152344 C 969.832031 1095.890625 986.5 1104.460938 1001.496094 1115.621094 C 1020.027344 1129.421875 1035.316406 1146.5 1046.957031 1166.402344 C 1058.128906 1185.519531 1065.4375 1206.363281 1068.65625 1228.363281 C 1070.886719 1243.621094 1071.085938 1258.921875 1069.246094 1274.042969 C 1068.496094 1280.222656 1073.367188 1285.679688 1079.585938 1285.460938 C 1081.4375 1285.402344 1083.289062 1285.371094 1085.15625 1285.371094 C 1102.21875 1285.371094 1119.527344 1288.070312 1135.9375 1293.390625 C 1152.96875 1298.910156 1168.847656 1307.152344 1183.246094 1317.871094 L 1193.757812 1325.699219 C 1245.246094 1364.023438 1267.917969 1426.890625 1257.679688 1486.199219 C 1256.375 1493.730469 1262.289062 1500.5625 1269.9375 1500.5 C 1270.355469 1500.492188 1270.765625 1500.492188 1271.1875 1500.492188 C 1287.40625 1500.492188 1303.417969 1503.019531 1318.808594 1508.011719 C 1334.765625 1513.191406 1349.667969 1520.910156 1363.175781 1530.960938 L 1390.265625 1551.132812 C 1458.6875 1602.070312 1472.867188 1698.828125 1421.925781 1767.261719 L 1408.574219 1785.191406 C 1402.296875 1793.628906 1403.785156 1805.738281 1412.257812 1811.980469 C 1413.746094 1813.070312 1415.375 1813.941406 1417.117188 1814.550781 C 1447.507812 1825.339844 1740.503906 1924.859375 1823.308594 1785.21875 C 1828.75 1776.03125 1825.070312 1764.128906 1815.480469 1759.429688 L 1542.160156 1625.78125 C 1525.699219 1617.71875 1517.066406 1598.921875 1522.417969 1581.390625 C 1526.324219 1568.589844 1537.449219 1557.011719 1564.503906 1555.859375 C 1567.347656 1555.742188 1570.203125 1556.378906 1572.742188 1557.699219 L 1853.875 1704.378906 C 1885.441406 1720.859375 1921.28125 1727.75 1956.617188 1723.371094 C 1999.902344 1718.011719 2047.019531 1695.710938 2051.152344 1625 C 2052.234375 1606.429688 2042.671875 1588.851562 2026.59375 1579.480469 L 1675.820312 1375.121094 C 1662.109375 1367.140625 1654.738281 1351.511719 1657.351562 1335.871094 C 1659.816406 1321.25 1667.644531 1306.359375 1689.179688 1305.5625 C 1696.230469 1305.300781 1703.191406 1307.179688 1709.289062 1310.722656 L 2077.890625 1524.960938 C 2096.402344 1535.710938 2117.601562 1540.941406 2138.988281 1539.949219 C 2175.859375 1538.242188 2229.648438 1527.050781 2250.898438 1479.039062 C 2269.589844 1436.839844 2253.132812 1387.292969 2213.539062 1363.542969 L 1809.964844 1121.390625 C 1798.046875 1114.242188 1791.042969 1101.050781 1791.953125 1087.183594 C 1793.167969 1068.890625 1802.425781 1048.171875 1839.921875 1054.171875 C 1844.480469 1054.902344 1848.84375 1056.542969 1852.792969 1058.910156 L 2311.234375 1332.171875 C 2345.296875 1352.46875 2387.109375 1355.851562 2423.554688 1340.230469 C 2450.683594 1328.613281 2474.789062 1306.550781 2476.1875 1264.953125" fill="#000000"/></g><g id="change1_6"><path d="M 2643.757812 970.089844 L 2261.152344 285.433594 C 2258.097656 279.976562 2251.6875 277.367188 2245.695312 279.148438 C 2218.210938 287.3125 2183.855469 295.652344 2178.871094 296.269531 C 2164.097656 298.09375 2149.242188 298.957031 2134.421875 298.957031 C 2084.027344 298.957031 2033.683594 288.972656 1986.117188 272.625 C 1875.25 234.535156 1737.414062 223.5625 1614.472656 223.5625 C 1523.519531 223.5625 1440.730469 229.570312 1382.992188 235.007812 C 1335.421875 239.488281 1289.230469 242.945312 1243.132812 256.566406 C 1199.820312 269.34375 1162.769531 298.878906 1132.53125 331.578125 C 1124.53125 340.226562 1116.710938 349.066406 1109.011719 358.050781 C 1078.011719 394.269531 1049.359375 432.90625 1022.070312 471.699219 C 982.089844 528.539062 854.398438 684.101562 947.507812 743.34375 C 964.046875 753.863281 983.738281 758.164062 1003.472656 758.164062 C 1010.082031 758.164062 1016.691406 757.679688 1023.191406 756.789062 C 1097.691406 746.582031 1164.421875 702.175781 1216.679688 650.21875 C 1242.019531 625.023438 1264.800781 597.160156 1284.929688 567.648438 C 1288.378906 562.59375 1302.101562 532.367188 1307.890625 530.847656 L 1435.722656 497.339844 L 1478.453125 486.136719 C 1479.589844 485.839844 1480.761719 485.691406 1481.933594 485.691406 C 1484.191406 485.691406 1486.429688 486.25 1488.460938 487.347656 C 1554.351562 523.066406 2128.886719 838.152344 2458.566406 1122.710938 C 2458.597656 1122.738281 2458.628906 1122.769531 2458.648438 1122.789062 C 2463.191406 1126.679688 2469.898438 1126.667969 2474.507812 1122.867188 L 2642.992188 984.335938 C 2645.949219 980.113281 2646.273438 974.589844 2643.757812 970.089844" fill="#000000"/></g></g></svg>