<?xml version="1.0" encoding="UTF-8" standalone="no"?><svg xmlns="http://www.w3.org/2000/svg" xmlns:xlink="http://www.w3.org/1999/xlink" fill="#000000" height="450.6" preserveAspectRatio="xMidYMid meet" version="1" viewBox="-2.6 0.0 315.0 450.6" width="315" zoomAndPan="magnify"><g id="change1_1"><path d="M312.4,259.9l-5.4,7.8c0,0-28.1-19.5-37.4-29c-1.1,0.4-2.4,0.3-3.5-0.5c-1.5-1-2-2.9-1.5-4.4l-21.5-14.9 l1.1-1.6l21.6,14.9c1.2-0.9,3-1,4.4,0c1.3,0.9,1.9,2.4,1.6,3.7C279,239.3,296.9,248.3,312.4,259.9z" fill="#a7a9ac"/></g><g id="change2_1"><path d="M266.1,214.3l-98.7,50.9c-1.4,0.8-3.2,0.4-4.3-0.8L90.2,183c-1.6-1.7-1.1-4.5,1-5.6l96.9-51.1 c1.4-0.8,3.2-0.4,4.3,0.8l74.6,81.6C268.6,210.4,268.1,213.2,266.1,214.3z M239.7,318.9c-12.5-10.6-25.2-16.4-37.7-20.6v0 c-26.3-8.8-51.2-10.3-69-33.2c-2.9-3.7-5.6-8-8.1-13c-1.2-2.4-2.4-5-3.5-7.8c-13.2-33-23.5-48.3-32.9-54.8c-7.8-5.3-15-4.6-23-2.7 C47.8,191,8.7,235.4,2.6,269.1c-0.5,2.9-1,5.8-1.4,8.9c-3.8,29.3-0.5,65.8,31,82c11.6,5.9,21.8,14.2,29.5,24.7 c11.5,15.8,24.5,39.5,23.6,65.2H259C259,449.9,284.9,357.2,239.7,318.9z" fill="#00bf63"/></g><g id="change3_1"><path d="M186.3,215.2c0,0,20.6-12,31.8,4.5s21.3,30.7,38.3,16.9c0,0,9,7.6-1.8,17.1c0,0,6.3,18.9-14.8,25.5 c0,0-20.3,21-51.8,8C156.4,274.3,186.3,215.2,186.3,215.2z M132.8,205.5c0,0-15.5,10-19.3,33.4s10,52.4,36,52.7 C175.5,291.8,132.8,205.5,132.8,205.5z M88.4,189.6c0,0,0-0.1,0-0.1c-7.8-5.3-15-4.6-23-2.7c-2.1,0.5-4.5,1.6-7.1,3.1 C39,201.4,8,239.4,2.6,269.1c-0.5,2.9-1,5.8-1.4,8.9c7,24.1,21.1,40.5,47.3,22.5C59,293.4,67,285.3,73,276.8 C100.3,238.5,89.1,192.3,88.4,189.6z" fill="#231c28"/></g><g id="change4_1"><path d="M176.8,26.1l-71.8,51.3l-82.5,58.9c-9.8-5.7-16.5-15.1-18.7-26.1l70.2-46.5L158.1,0 C167,6.6,173.4,15.6,176.8,26.1z" fill="#f9eae4"/></g><g id="change2_2"><path d="M115.2,67.2c-2.6-5.9-8.6-8.6-17-7.8c6.9-7.1,8.8-14.3,5.1-20.4c-2.3-3.7-5.6-5.6-9.3-5.4 c-4.2,0.2-8.3,3.3-10.3,7.5C81.7,45,82,49,84.4,52.2c3.2,4.3,3.7,7.3,3.6,9.1l0,0c0,0.2,0,0.3,0,0.5c-0.7,0.5-1.2,1.3-1.3,2.2 c-0.1,1.2,0.4,2.4,1.5,3c1.5,0.9,3.6,3,5.4,8.1c1.3,3.8,4.4,6.3,8.6,7c0.8,0.1,1.5,0.2,2.3,0.2c3.9,0,7.6-1.6,9.8-4.4 C116.6,75,116.9,71.2,115.2,67.2z M87.6,49.8c-2-2.7-1.1-5.5-0.5-7c1.4-2.9,4.2-5.1,6.9-5.2c0.1,0,0.2,0,0.3,0 c2.1,0,3.9,1.2,5.4,3.5c4.3,6.9-3.2,14.6-7.8,18.5C91.6,56.6,90.2,53.3,87.6,49.8z M111.1,75.4c-1.7,2.1-5.1,3.2-8.3,2.7 c-1.6-0.3-4.4-1.2-5.5-4.4c-1.4-4.1-3.3-7.2-5.6-9.2c5.9-1.6,16.5-3.3,19.7,4.1C112.6,71.4,112.5,73.7,111.1,75.4z" fill="#00bf63"/></g><g id="change1_2"><path d="M108.3,79.9c-2.8-7.3-12.4-10.7-15.3-11.5c0.3-3.6-0.8-7.3-3.3-10c-4.1-4.6-10-10.7-13.1-12.1 c-5.1-2.3-10.5,8.9-10.5,8.9c-7.4-4.8-12,6.6-12,6.6c-8.3-0.3-10,9.2-10,9.2c-6.6,1.3-4.7,15.6-4.7,15.6s20.3,10.7,23.8,12.2 c3.6,1.5,5.9-3.1,5.9-3.1c2.6,0.7,4.6-0.7,6-2.1l-7.5,9.4l-20.2,15.4c0.9,3.6,2,6.1,3.5,7.7c-4.8,9.8,3.4,17.3,3.4,17.3 s-3.3,10.2,1.5,34.2c0.8,4,1.6,8.1,2.4,12.2c3.8,20.3,5.6,40.6,6.3,51.4c1.3,19.1,5,25.9,8.4,35.5c27.3-38.2,16.1-84.5,15.4-87.2 c0,0,0-0.1,0-0.1c0,0-1-32.2-9.7-49.5c8.9-8.9,1.1-16.1,1.1-16.1c6.4-5.2,10-16,15.2-23.5C101.9,90.4,111.7,88.6,108.3,79.9z M77.2,91.2c0,0,0.1,0,0.1,0l-0.4,0.6C77.1,91.4,77.2,91.2,77.2,91.2z" fill="#a7a9ac"/></g><g id="change5_1"><path d="M169.6,373c0,0-7.6-17.5-18.5-36.6c-2.1-3.6-3.9-7.6-5.6-11.7c-6.9-17.1-8.9-35.8-6.8-54.2 c0.1-1.3,0.3-2.5,0.4-3.7c-2.2-2.9-3.9-6-5.2-9.5c0,0-10.7,3.9-14.8-8.6c-4.1-12.5,5.1-27.6,14.6-22.5c0,0-3.1-20.2,10.5-31.1 s58.9-3.9,64.5,16.8c0,0,4.5,12,0.4,32.4c-3.2,16-11.1,30.5-22.7,36.4c-1.7,8.2-1.6,11.7-1.6,11.7C186.1,321,169.6,373,169.6,373z M237.5,299.8c-4.9-1.5-19.7,1.5-26.3,0s-8.9,8.7-12.3,11.2c-3.3,2.5,2.8,9.9,2.8,9.9s-7.1,8.9-3.8,18.6c0,0-3.4,33.8-8.6,48.3 s-7.3,43.9-7.3,43.9s20.4-1.5,38.3-46.7c0,0-3.6-34,4.1-43.7s17.4-12.3,22-18.9C251.1,315.8,242.4,301.3,237.5,299.8z" fill="#e29a64"/></g><g id="change3_2"><path d="M184.5,282.6c-5.6,1.5-11.6,1.1-16.9-0.9c-0.2-0.1-0.2-0.3,0.1-0.2c5.4,1.6,11.2,1.3,16.3-0.5 C185.7,280.4,186.4,282,184.5,282.6z M122.3,243.9c-0.7-4,1.9-8.2,5.3-9.3c0.4-0.1,0.6-0.4,0.7-0.7c1.4,2.1,2.1,4.7,2,7.1 c-0.1,1.2,1.6,1.5,1.6,0c-0.2-4.3-2.8-8.2-6.3-10.2c-0.2-0.1-0.2,0.1-0.1,0.2c0.8,0.6,1.4,1.2,2,1.9c-0.2,0-0.3,0-0.5,0.1 c-2.2,1-3.7,2.7-4.5,4.7c-0.8,2-1,4.2-0.4,6.2C122.2,244.1,122.4,244.1,122.3,243.9z M186.2,224.9c0.3,0.7,0.4,1.4,0.4,2.2 c-0.1,1.5-0.8,3-1.5,4.4c-0.1,0.2,0,0.3,0.2,0.1c0.8-1.4,1.6-2.8,1.9-4.5c0.1-0.8,0.1-1.7-0.3-2.5c-0.3-0.8-0.8-1.5-1.1-2.1 c-0.6-1.3-0.9-2.9-0.6-4.3c0.3-1.4,1-2.7,2.1-3.7c0.7-0.6,0.9-1.2,0.7-1.6c-0.2-0.4-1-0.4-1.9,0.4c-1.2,1.3-2,2.9-2.2,4.7 c-0.2,1.7,0.2,3.5,1.1,5C185.4,223.6,185.9,224.2,186.2,224.9z M177,230.4c0.8-1.2,2.1-1.8,3.3-1.9c0.4,0,0.1-1.8-0.4-1.6 c-1.6,0.6-2.6,2-3.1,3.4C176.8,230.4,177,230.5,177,230.4z M209.8,313.9c0-0.1,0-0.2-0.1-0.4c0-0.2-0.1-0.5-0.1-0.8 c-0.1-0.5-0.1-1.1-0.1-1.6c0-1.1,0-2.1,0.1-3.2c0.1-0.9-0.1-1.3-0.6-1.5c-0.4-0.2-1,0.3-1.1,1.3c-0.1,1.2,0,2.3,0.1,3.4 c0,0.1,0,0.1,0,0.2c-1.1-0.9-1.8-2-2.2-3.2c-0.1-0.5-1.8,0.1-1.5,0.7c0.9,1.5,2.3,2.5,3.7,3.1c0,0.3,0.1,0.6,0.1,0.9 c0.1,0.3,0.1,0.6,0.2,0.8c0,0.1,0.1,0.3,0.1,0.4v0c-1.4,0.8-2.5,1.8-3.6,2.8c-1.2,1.2-2.3,2.4-3.3,3.7c-0.1,0.2,0,0.3,0.2,0.1 c1.1-1.2,2.3-2.4,3.6-3.4c1.3-1,2.7-2,4.1-2.6l-0.2-0.6c0.1-0.2,0.2-0.3,0.4-0.3c0.1,0,0,0,0,0C209.9,314,209.8,314,209.8,313.9z M222.8,314.2c-0.3-2.5-1.2-5-2.6-7.1c-0.7-1.1-1.5-2.1-2.3-3.1c-0.8-1-1.7-1.9-2.4-2.8c-0.4-0.6-0.9-0.6-1.3-0.6 c-0.2,0-0.4,0.2-0.4,0.5c0,0.2,0,0.3,0.1,0.5c0.1,0.2,0.2,0.4,0.3,0.5c0.9,1,1.8,1.8,2.7,2.7c0.9,0.9,1.7,1.8,2.5,2.7 c1.5,1.9,2.7,4.2,3.2,6.6C222.6,314.5,222.8,314.5,222.8,314.2z M229.9,308.9c1.5,2.7,2.4,5.8,2.1,8.9c0,0.3,0.2,0.3,0.2,0 c0.6-3.1-0.1-6.4-1.4-9.4c-1.3-3-3.2-5.6-5.2-8c-1.4-1.7-2.7-0.5-1.2,1.1C226.4,303.8,228.4,306.1,229.9,308.9z M234.5,300.2 c-1.1-1.6-2.5-0.5-1.3,1c1.7,2.1,3.3,4.4,4.6,6.7c1.3,2.4,2.4,4.9,2.9,7.6c0.1,0.2,0.2,0.2,0.2,0C240.3,310,237.6,304.8,234.5,300.2 z M65.6,250.9c3.4,1.9,7.4,2.1,11.2,1.7c1.9-0.2,3.8-0.5,5.7-1.1c1.9-0.6,3.7-1.4,5.3-2.6c1.1-0.9,1.2-1.8,0.9-2 c-0.3-0.3-1-0.1-1.9,0.7c-2.7,2.3-6.4,3.4-10.1,4c-3.7,0.6-7.6,0.7-11-1C65.4,250.6,65.3,250.8,65.6,250.9z M69.8,265.3 c6.7,2,14.1,0.3,19.2-3.9c0.2-0.2,0.1-0.3-0.1-0.2c-5.4,3.9-12.6,4.7-18.6,2.5C68.3,262.9,67.5,264.5,69.8,265.3z M78.4,125.6 c1.3-0.8,1.7-1.6,1.5-1.9c-0.3-0.4-1.1-0.3-2.3,0.5c-3.6,2.2-7.8,3.3-12,3.4c-4.2,0.1-8.5-0.9-12.3-3c-0.3-0.2-0.4,0-0.1,0.2 c3.6,2.4,8,3.6,12.4,3.8C70,128.7,74.5,127.8,78.4,125.6z M73,97.8c1.1-1,1.4-1.7,1.1-2.1c-0.2-0.3-1.2-0.2-2.2,0.9 c-3.2,3.2-5.3,7.3-6.2,11.7c-0.9,4.3-0.5,8.9,1,13c0.1,0.4,0.3,0.3,0.2-0.1c-1.3-4.1-1.4-8.6-0.3-12.7 C67.6,104.4,69.9,100.6,73,97.8z M82.8,88.6c2.1,0.3,4.2-0.8,5.5-2.4c1.4-1.6,2.1-3.7,2.6-5.7c0.4-2,0.7-4,1-6l0.9-6 c0.4-2.8-1.3-3-1.6-0.2l-0.6,6.1c-0.2,2-0.4,4.1-0.7,6c-0.3,1.9-0.8,3.9-2,5.5c-1.2,1.5-3.1,2.7-5.1,2.6 C82.5,88.3,82.5,88.5,82.8,88.6z M57,66.8c4.1,4.7,9.8,7,13.6,11.4c1.9,2.2,3,4.9,3.8,7.8c0.4,1.4,1,2.8,1.1,4.2 c0.1,0.7,0,1.4-0.3,2.1c-0.3,0.6-0.8,1.2-1.4,1.5c-0.5,0.1-0.5,0.3,0.1,0.2c0.7-0.3,1.3-0.9,1.7-1.6c0.1-0.3,0.2-0.5,0.3-0.8 c0.1,0,0.2,0,0.3,0c1.7-0.1,3.4-0.6,4.7-1.8c1.3-1.2,1.8-3,2.1-4.6c0.5-3.4-0.1-6.8-0.4-10.1c-0.1-1.6,0.1-3.4-0.5-5.1 c-0.6-1.7-1.7-3.2-3-4.4c-2.6-2.4-5.8-3.8-8.2-5.8c-1.7-1.4-2.6-2-2.9-1.8c-0.3,0.2,0,1.6,1.9,3.1c2.8,2.1,5.9,3.4,8.4,5.5 c1.2,1.1,2.2,2.3,2.8,3.8c0.6,1.5,0.5,3.1,0.6,4.8c0.4,3.4,1.1,6.7,0.8,9.9c-0.2,1.6-0.7,3.3-1.8,4.4c-1.1,1.2-2.8,1.8-4.4,1.9 c-0.1,0-0.2,0-0.2,0.1c0.1-0.4,0.1-0.9,0.1-1.3c-0.1-1.5-0.5-2.9-0.9-4.4c-0.2-0.7-0.4-1.4-0.6-2.2c-0.2-0.7-0.5-1.4-0.8-2.1 c-0.3-0.7-0.6-1.4-1-2c-0.4-0.7-0.8-1.3-1.3-1.9c-3.8-4.8-9.5-7.4-13.1-11.9c-0.6-0.8-1.1-1.3-1.4-1.6c-0.4-0.3-0.7-0.5-0.9-0.4 c-0.2,0.1-0.2,0.4-0.1,0.9C56,65.2,56.3,65.9,57,66.8z M62.8,85.3c0.9,0.9,1.5,2,2.1,3.1c1.1,2.3,2.1,4.7,3.2,7.1 c0.2,0.4,0.4,0.3,0.2-0.1l-2.9-7.2c-0.5-1.2-1.1-2.4-2.1-3.4c-0.9-1-2-1.7-3.1-2.5c-4.3-2.9-8.6-5.8-12.9-8.6c-3-2-3.9-0.5-0.9,1.4 c4.4,2.7,8.9,5.4,13.3,8.1C60.9,83.8,62,84.4,62.8,85.3z M89.5,84.8c-0.4,0.2-0.6,0.8-0.1,1.2c0.8,0.7,1.7,1,2.6,1.1s1.7,0,2.5-0.1 c1.6-0.3,3.2-0.7,4.7-1.2c0.1,0,0.1-0.2-0.1-0.2c-1.6,0.3-3.1,0.4-4.7,0.4c-1.5,0-3.1-0.3-3.9-1.2C90.4,84.6,89.9,84.6,89.5,84.8z M60.5,145.4c-1.8-0.3-3.6-0.8-5.2-1.6c-0.3-0.1-0.2-0.3,0.1-0.2c3.5,1.5,7.4,1.6,11,0.8c3.7-0.8,7.1-2.5,10.2-4.4 c2.2-1.4,3.1,0.1,0.8,1.4c-3.1,1.7-6.3,3.1-9.8,3.7c0.2,0.6,0.2,1.9,0.2,3.8c0,4.1,0.8,8.3,1,12.6c0.1,2.1,0,4.3-0.5,6.4 c-0.1,0.5-0.3,1.1-0.4,1.6c-0.2,0.5-0.3,1.1-0.7,1.6c-0.2,0.3-0.6,0.5-0.9,0.6c-0.4,0.1-0.7,0.1-1.1-0.1c-0.7-0.2-1.1-0.8-1.4-1.3 c-0.3-0.5-0.4-1.1-0.5-1.6c-0.1-0.5-0.3-1-0.4-1.6c-0.2-1-0.4-2.1-0.5-3.1c-0.3-2.1-0.4-4.2-0.6-6.3c-0.1-2.1-0.3-4.2-0.5-6.3 c-0.1-1-0.2-2.1-0.4-3.1c-0.1-0.5-0.2-1-0.3-1.6l-0.2-0.8C60.6,145.8,60.5,145.6,60.5,145.4z M61,145.4C61,145.4,61,145.4,61,145.4 c0,0.1-0.2,0.1-0.2,0.1c0,0,0,0,0-0.1c0,0,0,0,0,0c0,0-0.1,0-0.1,0c0,0.1,0,0.4,0.1,0.5l0.2,0.8c0.1,0.5,0.2,1,0.3,1.6 c0.2,1,0.4,2.1,0.5,3.1c0.3,2.1,0.5,4.2,0.7,6.3c0.2,2.1,0.4,4.2,0.8,6.2c0.2,1,0.4,2.1,0.6,3.1c0.1,0.5,0.3,1,0.4,1.5 c0.1,0.5,0.3,1,0.5,1.4c0.4,0.8,1.4,1.1,1.7,0.5c0.2-0.3,0.4-0.8,0.5-1.3s0.3-1,0.3-1.5c0.4-2,0.4-4.1,0.2-6.1 c-0.3-4.1-1.2-8.3-1.3-12.6c0-1.7,0.2-2.9,0.5-3.6c-0.1,0-0.1,0-0.1,0C64.8,145.6,62.9,145.6,61,145.4z M225,377 c-1.1-1.2-2.2-1.9-2.9-2.3s-1.2-0.3-1.3-0.1c-0.2,0.4,1,1.3,3.1,3.5c11.6,13.8,15.4,33.9,9.6,51.3c-0.2,0.8-0.1,0.8,0.2,0.1 c3.1-8.6,3.9-18.1,2.4-27.2C234.6,393.1,231,384.3,225,377z M184.3,397.9c-5.1,7.9-10.1,16-14.1,24.7c-3.9,8.6-6.9,17.8-7.6,27.2 c-0.1,0.8,0.1,0.8,0.2,0c0.9-9.4,4.1-18.4,8.3-26.9c4.2-8.5,9.3-16.4,14.6-24.2C189.3,393.5,187.8,392.5,184.3,397.9z M186.6,381.6 c-1.1,0.9-2.8,2.2-5.3,3.5c-3.6,1.9-7.7,3-11.9,3.5c-4.1,0.5-8.4,0.4-12.5-0.1c-8.3-1-16.2-4.5-22.9-9.6c-6.8-5-12.4-11.5-17.1-18.5 c-4.7-7-8.5-14.6-12.1-22.2c5.1-7.2,8.9-15.3,11.3-23.8c2.6-9.1,3.7-18.6,3.4-28.1c-0.2-6.5-1.2-9.6-1.6-9.6c-0.5,0.1-0.3,3.3,0,9.6 c0.4,9.3-0.6,18.7-3,27.6c-2.2,8.2-5.8,16.1-10.6,23.2c-0.1-0.1-0.1-0.1-0.1,0.1c-0.4,0.6-0.8,1.2-1.2,1.8 c-5.5,7.5-12.6,13.9-20.7,18.6c-4,2.4-8.3,4.3-12.8,5.7c-4.5,1.4-9.1,2.3-13.8,2.6c-1.6,0.1-1.6,0.3,0,0.2c4.7-0.2,9.4-1,13.9-2.4 c4.5-1.4,8.8-3.3,12.9-5.6c8.2-4.7,15.4-11,21.1-18.5c0.3-0.4,0.6-0.9,0.9-1.3c3.5,7.6,7.2,15.2,11.7,22.3c4.6,7.1,10.2,13.8,17,19 c6.7,5.2,14.8,9,23.3,10.1c4.3,0.6,8.6,0.7,12.9,0.2c4.3-0.5,8.6-1.5,12.4-3.5c2.7-1.4,4.4-3,5.3-4.1c1-1.2,1.2-1.9,1.1-2 C188.3,380.3,187.7,380.7,186.6,381.6z M128,375.4c-0.4-0.1-1.3,1.8-2.2,5.7c-5.7,22.8-16.3,44.4-31.1,62.8 c-0.6,0.8-0.5,0.9,0.2,0.1c15.1-18.1,26.4-39.6,32.5-62.5C128.4,377.5,128.4,375.5,128,375.4z M143.5,391.5 c-0.9,17.5-4.8,34.9-11.7,51c-0.3,0.7-0.1,0.8,0.2,0.1c7.4-16,11.9-33.4,13.2-51C145.5,385.6,143.7,385.5,143.5,391.5z M166.4,393.9 c-0.2-4.8-2-4.7-1.6,0.1c0.8,13.9-0.9,28-5.2,41.3c-0.2,0.6,0,0.6,0.2,0.1C164.5,422.2,166.8,408,166.4,393.9z M115,304.4 c0.4,2.6,2.1,2.4,1.6-0.3c-1.6-7.8-4.9-15.2-9.3-21.8c-0.2-0.3-0.3-0.2-0.2,0.1C111.2,289.2,113.8,296.7,115,304.4z M232.2,338.2 c-1.3-1.2-2.4,0.1-1.1,1.2c3.8,3.2,6.9,7.2,8.9,11.8c0.1,0.2,0.3,0.1,0.2-0.1C238.7,346.4,236,341.8,232.2,338.2z M8.9,111.3 c-2.8-1.4-3.4,0.3-0.7,1.5c7.8,3.7,14.1,10.6,16.9,19c0.1,0.4,0.3,0.3,0.2-0.1C22.9,123.1,16.9,115.5,8.9,111.3z M155.7,215.6 c0.9,0.5,1.9,0.8,2.9,1.1c1.1,0.3,1.9,0.4,2.8,0.6c1.7,0.4,3.4,1,4.9,1.9c1.6,0.9,3.1,1.9,4.6,3.2c-0.5-2-1.8-3.7-3.3-5.1 c-1.6-1.4-3.5-2.3-5.6-2.8c-1-0.3-2.1-0.4-2.9-0.5c-0.9-0.1-1.8-0.3-2.6-0.5c-1.8-0.4-3.5-1.1-5.5-1.7 C152.3,213.3,153.9,214.6,155.7,215.6z M205.2,222.3c-1.5,0.6-2.8,0.8-4,0.8c-0.3,0-0.6-0.1-0.9-0.1c-0.3-0.1-0.6-0.1-1-0.2 c-0.4-0.1-0.8-0.1-1.2-0.1l-1.2,0c-1.6,0.1-3.2,0.5-4.6,1.3c-1.4,0.8-2.6,2.1-3,3.7c1.4-0.8,2.6-1.2,3.9-1.5 c1.3-0.3,2.6-0.4,3.9-0.5c0.7,0,1.3,0,2,0c0.3,0,0.8,0,1.2,0c0.4,0,0.9-0.1,1.3-0.2C203.1,224.9,204.6,223.8,205.2,222.3z M152.3,207.4c2.9-2.8,6.8-4.2,10.6-5.1c1.9-0.4,3.9-0.7,5.9-0.8c1.9-0.1,3.8,0,5.4,0.5c1.1,0.4,1.9-0.1,2.4-0.8 c0.2-0.4,0.2-0.8,0-1.3s-0.7-0.9-1.5-1.1c-2.3-0.5-4.6-0.4-6.6,0c-2.1,0.4-4.1,0.9-6,1.6c-3.9,1.4-7.7,3.5-10.4,6.6 C151.8,207.4,152.1,207.7,152.3,207.4z M190.8,207.6c5.4,2.1,10.4,5.7,13.9,10.6c0.2,0.2,0.5,0,0.4-0.2c-2.8-5.4-7.2-10.3-12.9-13.4 C190.2,203.6,189,206.9,190.8,207.6z" fill="#231c28"/></g><g id="change4_2"><path d="M194.5,241.6c-2.4,6.2-10.1,23.4-19.9,22.3c-11.9-1.3-12.5-30.2-12.4-30.2c11.2-0.9,25.4,3.2,30.8,4.9 C194.4,239,195,240.3,194.5,241.6z" fill="#f9eae4"/></g><g id="change3_3"><path d="M157.1,233.7c0,0-9.1,21.8-24.1,1.4c-17.6-23.8,4.9-32.7,4.9-32.7l22.2-14c0,0-22.4,33.5-15.5,40.7 C151.5,236.3,157.1,233.7,157.1,233.7z" fill="#231c28"/></g><g id="change2_3"><path d="M209.4,210l-0.2,3.8c-6.1-12-13.6-12.1-18.4-10.6c-2.7,0.9-5.6,0.1-7.4-2.1c-14.8-18.1-45.5,1.2-45.5,1.2 c0-12.5,7.7-23.9,19.5-28.1c7.3-2.6,16-3.4,25.7-1.2c0.5,0.1,1.1,0.2,1.6,0.4C200.8,177.6,211.1,193.4,209.4,210z" fill="#00bf63"/></g><g id="change3_4"><path d="M209.8,206.6c-0.2,2.4-0.4,4.8-0.7,7.2l0.1-3.6c0-1.2,0.1-2.4,0.1-3.6c-0.1-2.4-0.3-4.8-0.9-7.1 c-1.1-4.6-3.1-9.1-5.9-12.8c-2.8-3.8-6.4-7-10.5-9.2c-4.1-2.3-8.7-3.5-13.4-4.1c-4.7-0.6-9.5-0.6-14.1,0.2c-2.3,0.4-4.6,1-6.9,1.8 c-2.2,0.8-4.3,1.9-6.3,3.1c-7.9,5.2-13,14.4-13.3,24.1c-0.2-4.8,0.8-9.8,3-14.2c1.1-2.2,2.4-4.3,4-6.2s3.4-3.6,5.4-5 c2-1.4,4.2-2.6,6.6-3.5c2.3-0.9,4.7-1.5,7.1-2c4.9-0.9,9.9-0.9,14.7-0.3c4.9,0.6,9.8,2,14.1,4.5c4.3,2.4,8,5.9,10.9,10 c0.8,1,1.3,2.1,2,3.1c0.6,1.1,1.1,2.2,1.6,3.3c0.9,2.3,1.7,4.6,2,7.1C209.8,201.7,209.8,204.1,209.8,206.6z" fill="#231c28"/></g></svg>