<svg xmlns="http://www.w3.org/2000/svg" xmlns:xlink="http://www.w3.org/1999/xlink" width="1080" zoomAndPan="magnify" viewBox="0 0 810 809.999993" height="1080" preserveAspectRatio="xMidYMid meet" version="1.0"><defs><g/><clipPath id="7e2b721c97"><path d="M 81 264.4375 L 373.457031 264.4375 L 373.457031 367 L 81 367 Z M 81 264.4375 " clip-rule="nonzero"/></clipPath><clipPath id="2f6e6a5336"><path d="M 81 356.273438 L 307.417969 356.273438 L 307.417969 514.050781 L 81 514.050781 Z M 81 356.273438 " clip-rule="nonzero"/></clipPath></defs><g clip-path="url(#7e2b721c97)"><path fill="#ffffff" d="M 307.414062 264.4375 L 183.375 264.4375 C 109.203125 264.4375 81 310.273438 81 366.8125 C 82.613281 364.960938 84.292969 363.15625 86.046875 361.402344 C 105.808594 341.636719 132.089844 330.75 160.042969 330.75 L 159.488281 330.605469 L 307.414062 330.605469 C 343.957031 330.605469 373.582031 300.984375 373.582031 264.4375 L 307.414062 264.4375 " fill-opacity="1" fill-rule="nonzero"/></g><g clip-path="url(#2f6e6a5336)"><path fill="#ffffff" d="M 237.128906 448.273438 L 160.296875 448.273438 C 153.078125 448.273438 147.03125 442.363281 147.171875 435.144531 C 147.304688 428.152344 153.015625 422.523438 160.042969 422.523438 L 241.246094 422.523438 C 277.789062 422.523438 307.414062 392.898438 307.414062 356.355469 L 160.042969 356.355469 C 116.390625 356.355469 81 391.742188 81 435.398438 C 81 479.050781 116.390625 514.4375 160.042969 514.4375 L 170.960938 514.4375 C 207.503906 514.4375 237.128906 484.816406 237.128906 448.273438 " fill-opacity="1" fill-rule="nonzero"/></g><g fill="#ffffff" fill-opacity="1"><g transform="translate(250.845563, 513.573503)"><g><path d="M 40.03125 -74.03125 C 65.925781 -74.03125 78.875 -61.691406 78.875 -37.015625 C 78.875 -12.335938 65.925781 0 40.03125 0 L 7.96875 0 L 7.96875 -74.03125 Z M 31.75 -17.75 L 39.59375 -17.75 C 49.570312 -17.75 54.5625 -23.097656 54.5625 -33.796875 L 54.5625 -40.25 C 54.5625 -50.9375 49.570312 -56.28125 39.59375 -56.28125 L 31.75 -56.28125 Z M 31.75 -17.75 "/></g></g></g><g fill="#ffffff" fill-opacity="1"><g transform="translate(334.522536, 513.573503)"><g><path d="M 39.171875 -17.75 L 74.359375 -17.75 L 74.359375 0 L 2.578125 0 L 2.578125 -7.640625 L 36.90625 -56.28125 L 5.171875 -56.28125 L 5.171875 -74.03125 L 73.5 -74.03125 L 73.5 -66.390625 Z M 39.171875 -17.75 "/></g></g></g><g fill="#ffffff" fill-opacity="1"><g transform="translate(412.176513, 513.573503)"><g><path d="M 7.96875 -74.03125 L 71.984375 -74.03125 L 71.984375 -56.28125 L 31.75 -56.28125 L 31.75 -46.0625 L 66.1875 -46.0625 L 66.1875 -29.046875 L 31.75 -29.046875 L 31.75 -17.75 L 72.75 -17.75 L 72.75 0 L 7.96875 0 Z M 7.96875 -74.03125 "/></g></g></g><g fill="#ffffff" fill-opacity="1"><g transform="translate(489.830491, 513.573503)"><g><path d="M 7.96875 -74.03125 L 71.984375 -74.03125 L 71.984375 -56.28125 L 31.75 -56.28125 L 31.75 -46.0625 L 66.1875 -46.0625 L 66.1875 -29.046875 L 31.75 -29.046875 L 31.75 -17.75 L 72.75 -17.75 L 72.75 0 L 7.96875 0 Z M 7.96875 -74.03125 "/></g></g></g><g fill="#ffffff" fill-opacity="1"><g transform="translate(567.484469, 513.573503)"><g><path d="M 50.578125 -55.09375 L 50.578125 0 L 26.796875 0 L 26.796875 -55.09375 L 2.46875 -55.09375 L 2.46875 -74.03125 L 74.78125 -74.03125 L 74.78125 -55.09375 Z M 50.578125 -55.09375 "/></g></g></g><g fill="#ffffff" fill-opacity="1"><g transform="translate(645.138447, 513.573503)"><g><path d="M 57.578125 0 L 54.453125 -10.4375 L 28.515625 -10.4375 L 25.390625 0 L 1.078125 0 L 28.09375 -74.03125 L 55.734375 -74.03125 L 82.75 0 Z M 33.46875 -27.015625 L 49.5 -27.015625 L 41.75 -53.375 L 41.328125 -53.375 Z M 33.46875 -27.015625 "/></g></g></g></svg>