<?xml version="1.0" encoding="UTF-8"?><svg xmlns="http://www.w3.org/2000/svg" xmlns:xlink="http://www.w3.org/1999/xlink" height="501.2" preserveAspectRatio="xMidYMid meet" version="1.0" viewBox="-0.8 -0.0 559.0 501.2" width="559.0" zoomAndPan="magnify"><g id="change1_1"><path d="M452.7,294.7c-0.1-1-0.4-1.6-0.3-2.1c0.4-2.2,0.8-4.4,1.5-6.5c7.3-23.4,3.2-45-9.5-65.6c-10-16.3-21.7-30.9-36.5-43.1 c-8.5-7-16.8-14.3-24.8-21.1c0.5-2.7,0.6-4.3,1.1-5.9c0.6-2.1,1.6-4.2,2.1-6.3c6.4-24.3,4.8-48.5-9-69.2 c-36.2-54.4-82.9-73.6-143.2-54.1C194.3,33.7,150.3,84,179.6,141c0.5,0.9,0.2,2.2,0.4,4.7c-5.7,4-12,8.4-18.2,12.9 c-24.5,17.8-46.6,37.9-61.6,64.7c-9.9,17.6-14.5,36-9.5,56.2c0.8,3.2,1.2,6.5,2,11.1c-3.4,1.4-5.4,2.5-7.4,3.1 c-35.1,10.8-48.9,42.6-32.4,75.1c9,17.7,21.8,32.5,37.4,44.3c48.4,36.4,101.5,64,159.6,81.2c22,6.5,44.9,6.9,67.7,3.9 c11.6-1.5,20.4-7.8,23.9-18.2c3.3-9.7,10.1-13.7,17.9-18.2c24.9-14.6,50-29,74-44.9c19.2-12.7,34.2-30.2,44.1-51.3 c10.3-21.9,6.8-41-10.2-58C462.7,302.9,457.4,298.8,452.7,294.7z M424,248.9c3.9,9.4,4,20.5,5.2,31c0.7,6.4-2.6,9.9-9.4,11.2 c-17.9,3.4-36.1,5.7-52,16.1c-2.9,1.9-10,0.3-13.4-2.2c-7.6-5.4-14.7-11.8-21.1-18.7c-21.8-23.6-38.6-50.3-46.6-81.7 c-4.2-16.3-5.2-32.8,4.2-48.7c10.9-0.7,18.6,4.4,26,10.3c16.9,13.4,28.5,31,37.8,50.2c6.3,12.9,12,26.2,18,39.3 c9.1,0.5,12.3-3.9,10-11.2c-4.9-15.8-10.4-31.6-16.3-47.1c-2.3-6.1-6.2-11.6-9.3-17.4c0.8-0.8,1.6-1.6,2.5-2.4 C387.3,195.5,411,217.6,424,248.9z M337.3,320.6c-1.7,1.6-3.8,4.2-6.4,5.9c-18.9,11.6-37.8,23.3-56.9,34.4 c-3.9,2.3-10.4,4.7-13.4,3c-20.6-11.7-40.5-24.5-62.9-38.3c36.2-23.4,58-55.6,74.5-95.1c10.3,17.9,18,34.3,28.4,48.6 C311.2,293.7,324.6,306.4,337.3,320.6z M218.4,73.3c15.9-21,37.3-33,63.1-36.9c16.8-2.6,32.5,0.7,44.9,12.7 c8.7,8.4,17.2,17.6,23.6,27.9c12,19,10.5,39.4,1.8,59.3c-5.8,13.2-17.2,17.1-30.9,11.3c-12.7-5.4-23.9-2.9-34.4,4.9 c-4.4,3.3-8.4,7.1-13.1,11.2c-3.6-3.2-6.8-6.1-10.1-8.8c-12.1-10-24.9-13.5-40-6.2c-12.2,5.9-19.8,1.1-21.8-12.6 C197.9,112.7,204.3,91.8,218.4,73.3z M119.4,258.1c10.8-36.6,37.3-60,66.9-80.7c1,0.6,2,1.3,3,1.9c-2.7,5.2-5.8,10.1-7.9,15.5 c-6.1,16-11.9,32.2-17.3,48.4c-2.3,6.7-0.8,12.2,9.5,12.5c2.5-5.5,5.4-11.3,7.9-17.3c9-21,18.7-41.7,34.1-58.9 c10.3-11.5,21.3-22.6,39.9-24.4c2.1,5.9,5.4,11.3,5.8,17c0.7,9.9,1.4,20.4-1.1,29.8c-11.4,43.4-35.4,78.5-71.1,105.8 c-8.9,6.8-16.5,6-25.9,1.4c-11.8-5.8-24.2-10.6-36.7-14.6c-6.5-2.1-9.5-5.5-9.3-11.7C117.6,274.6,117.2,265.9,119.4,258.1z M317.8,474c-12.5-2-24.1-2.8-35.2-5.7c-47.1-12.4-90.4-34.1-132.2-58.3c-20.1-11.6-38.9-25.6-57-40.1 c-8.9-7.1-15.8-17.2-21.8-27.1c-9.3-15.5-2.8-27.8,15.3-28.7c9.1-0.5,19,1.1,27.5,4.5c51.1,20.7,99.7,46.4,145,77.8 c17.6,12.2,33.6,27.2,49,42.3C318.5,448.9,319.3,456.4,317.8,474z M456.6,343.8c-10.1,14.4-22.2,27.9-35.6,39.1 c-24.4,20.3-53.1,34-81.8,47.9c-16.8-16.1-32.2-31-48.7-46.9c5.3-3.7,9.5-7.2,14.2-9.8c28.7-15.7,57.4-31.6,86.4-46.6 c9.8-5.1,20.5-8.5,31-11.7c5.7-1.7,12.1-2.2,18-1.9C460.1,314.8,467.9,327.7,456.6,343.8z" fill="inherit"/><path d="M437.5,102c-4.5,8.2-8.1,17-11.2,25.9c-2.5,7.3-0.2,13.1,8.7,14.8c8.5-11.2,17-22.5,26.2-34.6c5.1,2.7,7.7,3.7,10,5.2 c22.6,14.3,34.1,5.8,49.7-9.1c2.2-2.1,3.7-7.3,2.7-10.1c-4.2-11.4-23.7-17.2-33.8-10.4c-3.7,2.4-7.2,5.2-10.2,8.5 c-6.8,7.5-13.4,9.5-23.2,3.9C446.8,90.6,442.9,92.3,437.5,102z" fill="inherit"/><path d="M75,116.7c4.9-2.3,9.7-4.9,16.3-8.3c9.1,11.8,18,23.3,26.6,34.5c8.5-2.3,10.9-7.8,8.6-14.3c-3.3-9.4-7.5-18.5-11.8-27.4 c-3.8-7.8-10.7-10.3-17.9-5.4c-10,6.8-17.3,3.6-24.4-4.3c-2.2-2.4-5-4.4-7.6-6.4c-11.1-8.1-29.7-3.8-35.6,8.4 c-1,2.1-0.9,5.6,0.1,7.7C36.8,116.6,59.3,124.1,75,116.7z" fill="inherit"/><path d="M68.6,184c4.5,2,9.1,3.8,16.4,6.9c1.9-5.6,4.8-9.8,4.2-13.4c-1.4-9-25.9-20.7-32.9-15.1c-9.4,7.5-18.3,5.6-28.1,3 c-4.8-1.3-9.8-1.9-14.7-2.1c-7.4-0.2-11.2,5-12.4,11.2c-1,5-1.9,11.9,0.6,15.3c6.8,9,35.6,9,42.6-0.8 C51.7,178.8,59.2,179.9,68.6,184z" fill="inherit"/><path d="M549.9,170c-2.7-5.8-7.9-7.6-13.9-6.6c-6,1-11.9,3-17.9,3.5c-5.3,0.5-12.6,1.7-15.8-1.1c-13.1-11.5-22.7-2.4-32.5,4.2 c-8.8,6-8.5,7.2-0.4,19.8c8.1-3.1,15.2-6.5,22.6-8.2c3.6-0.8,9.9,0.2,11.5,2.6c9.2,13.8,21.7,12.7,35.5,10.6 C558.2,192.1,555.4,182,549.9,170z" fill="inherit"/><path d="M92.3,37.3c2.9,7,6.9,13.1,15.8,11.8c6.8-1,10.3,2.7,13.1,8c3.9,7.3,7.7,14.7,12.3,23.3c8.4-1.9,14.3-4.1,14.6-12.7 c0.3-11.7-9.1-30.8-17.6-31.4c-13.8-1.1-15.6-10.3-17-20.5c-0.7-5.2-0.8-10.4-1.2-15.8C89.5,4.4,85.7,9.8,90.1,29.3 C90.7,32,91.2,34.8,92.3,37.3z" fill="inherit"/><path d="M419.8,79.6c2.4-4.6,4.9-9.5,7.4-14.3c4.5-8.9,7.8-18.7,21.5-16.5c2.9,0.5,7.7-4.2,9.7-7.7c2.7-4.7,3.9-10.4,4.9-15.8 c3.3-16.7-4.7-24.8-23.2-23.7c-0.7,7.1-0.3,14.5-2.4,21.2c-1.5,4.7-5.9,11.8-9.5,12c-17.7,1.2-18.8,15.4-22.4,27 C402.4,73,404.8,75.5,419.8,79.6z" fill="inherit"/></g></svg>