<?xml version="1.0" encoding="UTF-8"?><svg xmlns="http://www.w3.org/2000/svg" xmlns:xlink="http://www.w3.org/1999/xlink" height="174.0" preserveAspectRatio="xMidYMid meet" version="1.0" viewBox="11.8 12.4 168.0 174.0" width="168.0" zoomAndPan="magnify"><g id="change1_1"><path d="M138.141,66.457l34.901,3.047c1.32,0.116,2.446-0.941,2.404-2.254l-1.105-34.741c-0.063-1.889-2.344-2.824-3.73-1.523 l-33.796,31.695C135.429,63.98,136.24,66.29,138.141,66.457z" fill="inherit"/></g><g id="change1_3"><path d="M151.842,161.33c15.078-12.437,24.259-28.951,27.591-46.367l-9.163-1.506c-2.649,13.631-9.337,26.629-20.128,37.043 c-29.159,28.128-76.453,26.382-103.358-4.71c-23.056-26.64-22.487-66.971,1.311-92.958c27.77-30.332,75.097-30.768,103.451-1.838 l6.636-6.402c-30.874-31.496-81.643-32.202-113.395-1.574c-32.952,31.787-32.473,84.83,2.048,115.981 C76.108,185.41,121.42,186.426,151.842,161.33z" fill="inherit"/><path d="M175.622,109.667c-2.529-0.422-4.924,1.268-5.346,3.768l9.16,1.523C179.858,112.462,178.152,110.092,175.622,109.667z" fill="inherit"/></g><g id="change1_2"><path d="M136.875,103.601c0.117-0.383,0.189-0.775,0.266-1.167c0.081-0.41,0.168-0.817,0.21-1.229 c0.039-0.401,0.03-0.802,0.033-1.206c0-0.404,0.006-0.805-0.033-1.206c-0.039-0.413-0.126-0.82-0.21-1.229 c-0.078-0.392-0.15-0.784-0.266-1.167c-0.114-0.38-0.269-0.751-0.422-1.125c-0.168-0.41-0.335-0.811-0.545-1.203 c-0.069-0.131-0.105-0.267-0.18-0.395c-0.126-0.217-0.296-0.392-0.434-0.6c-0.245-0.368-0.494-0.728-0.778-1.072 c-0.275-0.333-0.569-0.638-0.874-0.938c-0.275-0.27-0.551-0.535-0.853-0.784c-0.38-0.312-0.775-0.582-1.185-0.846 c-0.189-0.122-0.344-0.273-0.542-0.386L91.859,66.599c-0.207-0.119-0.428-0.178-0.638-0.285c-0.419-0.211-0.841-0.41-1.287-0.576 c-0.377-0.14-0.757-0.249-1.141-0.35c-0.407-0.11-0.811-0.208-1.233-0.276c-0.446-0.074-0.886-0.107-1.335-0.134 c-0.248-0.015-0.488-0.074-0.739-0.074c-0.15,0-0.287,0.039-0.434,0.045c-0.44,0.015-0.874,0.071-1.308,0.131 c-0.41,0.056-0.817,0.107-1.215,0.202c-0.377,0.089-0.739,0.217-1.108,0.341c-0.416,0.14-0.832,0.273-1.227,0.454 c-0.347,0.157-0.671,0.353-1.003,0.54c-0.377,0.214-0.754,0.422-1.105,0.671c-0.314,0.223-0.605,0.481-0.898,0.736 c-0.329,0.285-0.659,0.564-0.958,0.879c-0.251,0.264-0.476,0.558-0.703,0.846c-0.299,0.374-0.587,0.751-0.841,1.158 c-0.069,0.113-0.165,0.202-0.23,0.318c-0.114,0.196-0.174,0.41-0.278,0.609c-0.219,0.428-0.425,0.855-0.593,1.31 c-0.138,0.368-0.245,0.736-0.347,1.111c-0.111,0.41-0.213,0.817-0.281,1.238c-0.072,0.44-0.108,0.876-0.135,1.319 c-0.015,0.246-0.075,0.481-0.075,0.733v44.901c0,0.252,0.06,0.487,0.075,0.733c0.027,0.442,0.06,0.879,0.135,1.319 c0.069,0.425,0.171,0.831,0.281,1.238c0.102,0.374,0.21,0.742,0.347,1.111c0.171,0.454,0.374,0.882,0.593,1.31 c0.102,0.202,0.162,0.413,0.278,0.609c0.069,0.116,0.162,0.205,0.23,0.318c0.254,0.407,0.542,0.784,0.841,1.158 c0.23,0.291,0.452,0.582,0.703,0.846c0.299,0.315,0.629,0.597,0.958,0.879c0.296,0.252,0.584,0.514,0.898,0.736 c0.35,0.249,0.727,0.457,1.105,0.671c0.332,0.187,0.656,0.383,1.003,0.54c0.395,0.181,0.811,0.315,1.227,0.454 c0.368,0.125,0.73,0.252,1.108,0.342c0.398,0.095,0.805,0.146,1.215,0.202c0.437,0.059,0.868,0.116,1.308,0.131 c0.147,0.006,0.284,0.045,0.434,0.045c0.254,0,0.491-0.059,0.739-0.074c0.446-0.024,0.889-0.059,1.335-0.134 c0.422-0.068,0.826-0.169,1.233-0.276c0.383-0.104,0.763-0.211,1.141-0.35c0.446-0.166,0.868-0.362,1.287-0.576 c0.21-0.107,0.431-0.166,0.638-0.285l39.202-22.453c0.198-0.113,0.353-0.264,0.542-0.386c0.407-0.261,0.805-0.535,1.185-0.846 c0.302-0.246,0.578-0.511,0.853-0.784c0.305-0.3,0.599-0.606,0.874-0.938c0.284-0.344,0.533-0.704,0.778-1.072 c0.138-0.208,0.308-0.38,0.434-0.6c0.075-0.128,0.111-0.264,0.18-0.395c0.21-0.392,0.38-0.793,0.545-1.203 C136.606,104.346,136.761,103.978,136.875,103.601z" fill="inherit"/></g></svg>