<?xml version="1.0" encoding="UTF-8" standalone="no"?><svg xmlns="http://www.w3.org/2000/svg" xmlns:xlink="http://www.w3.org/1999/xlink" fill="#000000" height="530" preserveAspectRatio="xMidYMid meet" version="1" viewBox="-0.9 -2.1 314.2 530.0" width="314.2" zoomAndPan="magnify"><g id="change1_1"><path d="M312.674,273.542c-0.661-3.176-4.577-8.283-10.326-14.44c0.984-12.745-0.626-25.092-5.441-33.702 c-0.721-1.289-1.519-2.568-2.306-3.848c-16.385-26.674-46.845-51.361-85.939-67.148v-30.854c0-3.331-2.371-6.105-5.516-6.735V90.679 l54.435-10.337l-90.227-50.179L91.318,44.603c-5.026-3.414-12.364-4.501-20.576-3.862c0.939-3.548,1.528-5.736,1.528-5.736 s5.399-3.905,9.054-10.128c0.074,0.043,0.137,0.113,0.221,0.113c0.098,0,0.197-0.029,0.283-0.091 c0.048-0.035,0.055-0.093,0.086-0.14c5.277,3.356,10.395-11.37,6.508-12.624c0.008-0.039,0.041-0.068,0.038-0.11 c-0.012-0.234-0.201-0.394-0.425-0.426c0.635-4.958,1.038-7.714-2.221-10.658c-3.362-3.036-17.443,1.708-21.721,8.069 c-1.148,1.707-5.813,11.002-11.448,23.435c1.134-0.177,2.285-0.177,3.43-0.245c0.1-0.006,0.257,0.114,0.306,0.214 c0.152,0.313-0.151,0.363-0.314,0.372c-1.044,0.062-2.09,0.092-3.134,0.133c-0.149-0.041-0.298-0.081-0.447-0.122 c-1.947,4.302-4.004,8.968-6.072,13.825c-10.732,4.204-20.631,10.209-26.768,16.8c-0.622,0.669-1.22,1.388-1.805,2.131 c-0.139,0.176-0.276,0.353-0.413,0.532c-0.578,0.761-1.144,1.545-1.686,2.375c-0.002,0.004-0.005,0.008-0.007,0.011 c-0.547,0.838-1.071,1.721-1.583,2.627c-0.102,0.18-0.203,0.36-0.304,0.543c-0.512,0.931-1.011,1.886-1.488,2.881l0.035-0.006 C3.443,93.165,0.495,122.854,0.012,151.354c-0.903,53.307,49.347,47.97,91.053,42.43c-5.289,16.056-12.02,38.797-19.608,69.726 C54.222,333.763,48.935,415.98,48.935,415.98s7.056,4.28,24.576,7.684l7.44,37.097c-0.299,0.224-0.59,0.475-0.865,0.785 c-6.333,7.136-12.197,13.279-12.197,13.279s-26.598,3.509-34.538,11.763c-0.181-0.173-0.465-0.19-0.655-0.018 c-0.197,0.179-0.211,0.485-0.031,0.683c0.007,0.008,0.031,0.032,0.066,0.064c-2.584,3.287-2.239,7.801-1.393,11.184 c-0.002,0-0.004-0.001-0.006-0.001c-0.257,0.07-0.409,0.334-0.34,0.592c0.012,0.046,0.026,0.088,0.039,0.134l-2.69,2.819 l1.097,5.833c0,0,4.717,6.039,18.158,6.888c12.9,0.814,20.844-0.949,28.864-3.798c8.292-2.946,16.941-6.155,16.941-6.155 l0.628,5.288c7.296-0.135,23.864-4.295,23.864-4.295l-1.056-8.893l-2.42-1.165c0.048-0.101,0.074-0.216,0.042-0.332 c-0.054-0.197-0.229-0.294-0.422-0.315c0.244-2.617,1.21-17.564-7.032-30.367l-0.286,0.172c-0.17-11.325-0.413-26.623-0.635-37.539 c10.975,0.542,23.747,0.589,38.571-0.176c15.542-0.801,28.587-2.522,39.542-4.73l17.608,43.256c0,0-3.306,11.829-3.837,18.728 c-0.455,5.906,1.3,11.84,1.816,13.432c-0.156,0.052-0.292,0.151-0.329,0.322c-0.031,0.142,0.013,0.275,0.093,0.384l-1.259,0.928 l0.979,6.926l7.577,2.003c0,0,0.601,4.693,2.1,7.796c1.499,3.103,5.236,8.3,19.031,9.966c13.795,1.666,37.226-5.659,37.226-5.659 l-1.065-7.533l-1.455-1.307c0.106-0.118,0.173-0.265,0.129-0.43c-0.062-0.229-0.284-0.35-0.514-0.329 c-0.168-1.584-0.774-7.056-1.484-10.591c0.004-0.001,0.026-0.007,0.027-0.007c0.258-0.07,0.413-0.334,0.345-0.59 c-0.068-0.257-0.324-0.407-0.59-0.345c-0.002,0.001-0.038,0.01-0.046,0.012c-2.069-4.25-20.024-12.359-20.024-12.359l-9.169-20.099 c0,0-0.914-1.014-2.55-2.019l-17.271-50.354c19.184-7.63,25.175-15.759,25.175-15.759s-34.745-64.689-48.851-109.396 c-0.171-0.018-0.342-0.048-0.512-0.092c-0.105-0.027-0.176-0.182-0.263-0.278c0.15-0.133,0.284-0.352,0.453-0.384 c0.028-0.005,0.054,0.001,0.082-0.003c-1.021-3.274-1.926-6.434-2.698-9.452c-0.091-0.076-0.18-0.156-0.264-0.242 c0.076-0.015,0.138-0.008,0.201-0.001c-1.386-5.458-2.326-10.438-2.685-14.737c-0.114-1.362-0.197-2.732-0.265-4.106 c-0.052-0.02-0.112-0.019-0.162-0.047c-0.053-0.029-0.072-0.264-0.023-0.307c0.045-0.039,0.114-0.061,0.167-0.096 c-0.142-3.133-0.173-6.287-0.102-9.439c-0.109-0.008-0.22,0.006-0.319-0.029c-0.079-0.029-0.15-0.236-0.131-0.346 c0.041-0.238,0.227-0.326,0.464-0.311c0.266-9.797,1.46-19.539,3.023-28.444c-0.019-0.065-0.027-0.13-0.008-0.166 c0.012-0.022,0.034-0.04,0.049-0.061c0.585-3.315,1.219-6.509,1.877-9.547c10.383,7.367,19.309,16.045,26.515,24.958 c15.278,18.894,20.809,50.77,34.472,67.125l-0.025,0.044c0.596,0.714,1.209,1.397,1.838,2.049c0.021,0.022,0.041,0.044,0.062,0.066 c0.6,0.62,1.218,1.207,1.851,1.767c0.055,0.048,0.108,0.099,0.163,0.147c0.598,0.522,1.214,1.009,1.843,1.474 c0.095,0.07,0.187,0.145,0.282,0.214c0.593,0.427,1.207,0.817,1.83,1.19c0.138,0.083,0.272,0.174,0.412,0.254 c0.59,0.338,1.201,0.638,1.819,0.926c0.183,0.085,0.36,0.183,0.545,0.264c0.594,0.259,1.211,0.475,1.831,0.686 c0.222,0.076,0.435,0.167,0.661,0.236c0.626,0.192,1.278,0.338,1.931,0.48c0.234,0.051,0.458,0.122,0.696,0.166 c0.896,0.167,1.816,0.289,2.767,0.359c11.067,0.818,20.264-7.603,26.645-19.87c1.865,1.815,3.745,2.908,5.49,2.691 c1.305-0.162,2.634-0.641,3.937-1.341c0.031,0.138,0.104,0.264,0.241,0.332c0.068,0.034,0.141,0.049,0.213,0.049 c0.177,0,0.349-0.098,0.434-0.27c0.117-0.237,0.195-0.502,0.242-0.786c1.678-1.096,3.283-2.559,4.678-4.312 c0.064,0.029,0.131,0.046,0.196,0.046c0.177,0,0.349-0.098,0.432-0.268c0.143-0.289,0.214-0.627,0.253-0.984 c0.968-1.39,1.798-2.912,2.455-4.519c0.035,0.016,0.054,0.054,0.093,0.062c0.03,0.006,0.062,0.009,0.092,0.009 c0.226,0,0.428-0.16,0.473-0.39c0.094-0.481,0.105-1.031,0.027-1.616C313.019,279.675,313.306,276.576,312.674,273.542z M55.852,380.898c-0.37-0.035-0.607-0.289-0.783-0.584c-0.044-0.073,0.009-0.273,0.084-0.334c0.233-0.189,0.503-0.16,0.759-0.024 c0.255,0.136,0.416,0.337,0.394,0.642C56.233,380.823,56.062,380.918,55.852,380.898z M189.846,426.696 c-0.227-0.007-0.338-0.208-0.32-0.42c0.009-0.111,0.107-0.282,0.196-0.305c0.232-0.06,0.367,0.091,0.415,0.393 C190.14,426.498,190.086,426.703,189.846,426.696z M205.05,134.8c0.018-0.055,0.083-0.108,0.14-0.133 c0.057-0.025,0.153-0.044,0.192-0.013c0.767,0.59,1.558,0.428,2.372,0.117c0.141-0.054,0.245,0.109,0.204,0.264 c-0.016,0.061-0.054,0.142-0.104,0.166c-0.244,0.114-0.496,0.211-0.539,0.229c-0.949,0.064-1.592-0.212-2.247-0.431 C205.041,134.99,205.03,134.86,205.05,134.8z M192.639,76.174c0.246-0.002,0.387,0.137,0.383,0.364 c-0.002,0.088-0.132,0.234-0.222,0.25c-0.246,0.043-0.379-0.128-0.377-0.352C192.424,76.347,192.564,76.26,192.639,76.174z M189.945,86.042c-0.001,0.035-0.096,0.216-0.326,0.229c-0.218,0.012-0.411-0.089-0.402-0.352c0.008-0.224,0.148-0.383,0.364-0.418 C189.831,85.46,189.947,85.613,189.945,86.042z M179.636,153.558c-0.194,0.056-0.406,0.049-0.551,0.064 c-0.195-0.039-0.341-0.042-0.461-0.099c-0.183-0.088-0.383-0.208-0.315-0.457c0.03-0.109,0.147-0.261,0.242-0.275 c0.336-0.05,0.68-0.061,1.022-0.061c0.234,0,0.365,0.16,0.395,0.381c0.009,0.07-0.026,0.115-0.045,0.169 c-0.035,0.099-0.098,0.174-0.194,0.221C179.695,153.518,179.673,153.548,179.636,153.558z M188.242,172.398 c0.154,0.015,0.394,0.244,0.402,0.385c0.009,0.156-0.177,0.355-0.324,0.481c-0.27,0.23-0.515,0.067-0.741-0.118 c0.126-0.044,0.271-0.063,0.376-0.137c0.232-0.164,0.123,0.181,0.18-0.095c0.024-0.118,0.055-0.262-0.119-0.26 c-0.719,0.008-1.466-0.197-2.143,0.219c-0.546-0.31-1.075-0.205-1.617,0.033c-0.398,0.175-0.829,0.177-1.244,0.069 c-0.202-0.053-0.386-0.238-0.323-0.462c0.05-0.175,0.2-0.407,0.352-0.45c0.259-0.072,0.555-0.031,0.834-0.011 C185.332,172.157,186.789,172.26,188.242,172.398z M185.926,163.067c0.001-0.261,0.197-0.345,0.414-0.378 c0.139-0.021,0.282-0.017,0.564-0.031c0.35,0.066,0.838,0.143,1.315,0.263c0.077,0.019,0.158,0.236,0.142,0.348 c-0.016,0.113-0.148,0.297-0.232,0.298c-0.624,0.007-1.249-0.013-1.872-0.047C185.993,163.507,185.924,163.289,185.926,163.067z M189.367,174.4c0.074-0.086,0.243-0.146,0.354-0.127c0.085,0.014,0.147,0.17,0.219,0.262c-0.089,0.234-0.273,0.227-0.464,0.174 C189.32,174.665,189.256,174.53,189.367,174.4z M179.69,326.75c-0.442-0.017-0.885-0.034-1.327-0.051 C178.818,326.395,179.258,326.475,179.69,326.75z M178.081,182.369c0.036-0.155,0.258-0.328,0.43-0.376 c0.217-0.061,0.384,0.107,0.375,0.346c-0.009,0.236-0.182,0.343-0.402,0.377C178.281,182.674,178.027,182.606,178.081,182.369z M175.186,259.606c0.311-0.048,0.621-0.114,0.933-0.139c0.219-0.018,0.411,0.09,0.45,0.322c0.021,0.125-0.012,0.287-0.081,0.393 c-0.133,0.203-0.364,0.218-0.54,0.091C175.676,260.077,175.439,259.831,175.186,259.606z M175.657,315.756 c0.06,0.218-0.063,0.392-0.296,0.393c-0.223,0.001-0.375-0.157-0.372-0.379c0.002-0.099,0.129-0.195,0.198-0.291 C175.403,315.475,175.599,315.546,175.657,315.756z M176.893,273.773c0.066,0.037,0.112,0.263,0.066,0.314 c-0.07,0.079-0.243,0.135-0.34,0.104c-0.093-0.031-0.144-0.186-0.213-0.287C176.529,273.71,176.717,273.674,176.893,273.773z M176.858,279.949c0.308-0.067,0.678-0.407,0.879,0.041c0.159,0.354-0.216,0.638-0.435,0.888c-0.236,0.269-0.482,0.144-0.661-0.125 c-0.151-0.227-0.3-0.455-0.506-0.767C176.454,279.973,176.663,279.992,176.858,279.949z M174.016,182.411 c-0.229-0.062-0.424-0.214-0.272-0.451c0.154-0.24,0.423-0.398,0.728-0.238c0.092,0.048,0.129,0.203,0.192,0.309 C174.538,182.313,174.355,182.503,174.016,182.411z M174.098,288.791c-0.035,0.251-0.229,0.335-0.46,0.349 c-0.226-0.046-0.416-0.201-0.326-0.406c0.071-0.162,0.308-0.318,0.493-0.349C174.051,288.344,174.128,288.578,174.098,288.791z M170.804,316.88c-0.877,0.668-1.445,0.881-2.094,0.755c-0.101-0.019-0.226-0.168-0.246-0.274c-0.02-0.106,0.048-0.261,0.128-0.349 C169.181,316.366,169.816,316.735,170.804,316.88z M169.269,181.478c0.001-0.266,0.077-0.529,0.413-0.515 c0.079,0.003,0.2,0.172,0.218,0.279c0.047,0.273-0.012,0.527-0.296,0.657C169.366,181.853,169.269,181.681,169.269,181.478z M165.217,339.234c0.054,0.116,0.065,0.294,0.014,0.406c-0.078,0.17-0.22,0.315-0.351,0.454c-0.036,0.038-0.147,0.047-0.2,0.022 c-0.212-0.101-0.267-0.301-0.253-0.513c0.009-0.135,0.02-0.334,0.105-0.391c0.625-0.415,0.342-1.291,0.901-1.731 c0.103-0.081,0.186-0.186,0.384-0.388c-0.084,0.322-0.071,0.58-0.192,0.685C165.156,338.186,164.931,338.622,165.217,339.234z M164.902,333.024c0.069-0.058,0.301-0.047,0.348,0.016c0.116,0.153,0.168,0.354,0.268,0.588c-0.113,0.232-0.213,0.481-0.357,0.701 c-0.031,0.048-0.271,0.039-0.327-0.023C164.508,333.938,164.538,333.331,164.902,333.024z M155.087,336.6 c0.599-0.098,1.222-0.127,1.846-0.35c-0.861,0.574-0.808,1.817-1.785,2.111C155.083,337.875,154.76,337.257,155.087,336.6z M155.112,351.042c0.018,0.214-0.101,0.395-0.329,0.41c-0.236,0.016-0.357-0.145-0.379-0.374c-0.013-0.135-0.017-0.27-0.025-0.406 c0.012-0.135-0.002-0.28,0.044-0.401c0.037-0.098,0.159-0.244,0.222-0.234c0.116,0.018,0.275,0.115,0.31,0.216 C155.041,350.505,155.089,350.775,155.112,351.042z M155.958,287.925c0.133-0.031,0.363,0.147,0.476,0.289 c0.188,0.238-0.045,0.36-0.218,0.452c-0.116,0.062-0.259,0.079-0.392,0.106c-0.134,0.028-0.27,0.043-0.405,0.064 c-0.106-0.049-0.299-0.097-0.299-0.146c0-0.124,0.052-0.291,0.145-0.365C155.475,288.16,155.708,287.982,155.958,287.925z M155.954,200.7c0.202-0.014,0.403-0.047,0.606-0.053c0.055-0.002,0.112,0.067,0.168,0.103c-0.05,0.033-0.101,0.096-0.149,0.092 c-0.2-0.013-0.399-0.046-0.599-0.073C155.725,200.736,155.717,200.716,155.954,200.7z M145.761,323.147 c0.037-0.151,0.223-0.344,0.37-0.372c0.219-0.042,0.309,0.197,0.312,0.382c0.004,0.2-0.111,0.357-0.344,0.373 C145.887,323.488,145.712,323.345,145.761,323.147z M145.838,327.738c-0.05,0.118-0.114,0.342-0.147,0.337 c-0.233-0.031-0.228-0.245-0.209-0.41c0.011-0.094,0.132-0.175,0.203-0.262C145.736,327.514,145.787,327.626,145.838,327.738z M134.213,142.056c-0.378-0.081-0.52-0.384-0.543-0.735c-0.003-0.05,0.201-0.179,0.28-0.158c0.347,0.09,0.609,0.28,0.569,0.697 C134.413,141.932,134.296,142.074,134.213,142.056z M134.683,143.495c0.004,0.292-0.144,0.518-0.534,0.546 c-0.175-0.004-0.331-0.123-0.365-0.346c-0.043-0.283,0.014-0.559,0.347-0.609C134.416,143.044,134.679,143.159,134.683,143.495z M135.842,142.207c-0.067-0.008-0.177-0.192-0.157-0.264c0.031-0.107,0.144-0.22,0.251-0.267c0.149-0.067,0.255,0.022,0.28,0.186 C136.184,142.08,136.069,142.234,135.842,142.207z M170.783,176.112c0.09-0.206,0.276-0.29,0.482-0.18 c0.204,0.109,0.251,0.317,0.176,0.524c-0.072,0.198-0.203,0.356-0.458,0.334C170.716,176.628,170.663,176.385,170.783,176.112z M169.121,172.181c-0.034,0.053-0.074,0.156-0.101,0.152c-0.393-0.048-0.787-0.1-1.174-0.183c-0.052-0.011-0.125-0.265-0.086-0.303 c0.238-0.234,1.019-0.144,1.33,0.141C169.128,172.023,169.112,172.116,169.121,172.181z M161.178,169.189 c0.008-0.105,0.141-0.277,0.23-0.285c0.348-0.034,0.436,0.221,0.463,0.499c-0.01,0.218-0.079,0.427-0.318,0.388 C161.24,169.739,161.156,169.463,161.178,169.189z M162.409,155.612c-0.012,0.047-0.122,0.114-0.167,0.101 c-0.121-0.033-0.33-0.107-0.329-0.161c0.006-0.269,0.041-0.546,0.117-0.804c0.109-0.365,0.054-0.652-0.174-0.974 c-0.399-0.564-0.37-0.584,0.511-0.706c-0.195,0.609,0.252,1.143,0.203,1.735C162.519,155.072,162.474,155.345,162.409,155.612z M156.741,171.535c-0.075,0.211-0.212,0.356-0.456,0.292c-0.205-0.054-0.41-0.147-0.316-0.425c0.07-0.209,0.2-0.381,0.455-0.317 C156.639,171.14,156.791,171.271,156.741,171.535z M180.953,165.642c-0.33,0.097-0.548-0.083-0.555-0.402 c-0.008-0.361-0.081-0.682-0.281-0.977c0.169-0.166,0.338-0.332,0.507-0.498c0.365,0.335,0.637,0.734,0.708,1.228 C181.372,165.275,181.261,165.552,180.953,165.642z M181.385,170.15c-0.085,0.16-0.243,0.281-0.361,0.404 c-0.253-0.126-0.304-0.311-0.258-0.502c0.052-0.214,0.209-0.343,0.427-0.212C181.291,169.899,181.416,170.093,181.385,170.15z M181.44,149.713c-0.168-0.062-0.208-0.188-0.126-0.345c0.108-0.205,0.286-0.296,0.483-0.172c0.09,0.058,0.105,0.234,0.154,0.355 C181.826,149.75,181.644,149.788,181.44,149.713z M171.89,163.203c0.01,0.011,0.021,0.019,0.031,0.03 c0.004,0.01,0.001,0.018,0.004,0.027c0.121,0.017,0.243,0.03,0.363,0.054c0.413,0.085,0.597,0.372,0.368,0.595 c-0.186,0.18-0.433,0.296-0.649,0.446c-0.135,0.094-0.282,0.1-0.352-0.047c-0.044-0.093-0.004-0.244,0.039-0.354 c0.09-0.229,0.328-0.407,0.232-0.695c-0.009-0.001-0.019-0.003-0.028-0.004C171.898,163.237,171.89,163.222,171.89,163.203 c-0.274-0.307-0.586-0.535-0.935-0.647c-0.271-0.087-0.562-0.114-0.885-0.019c-0.562,0.166-0.93-0.204-1.327-0.375 c0.297-0.198,0.691-0.378,1.108-0.289c0.465,0.1,0.943-0.501,1.33-0.039c0.078,0.093,0.159,0.187,0.238,0.284 C171.669,162.426,171.887,162.768,171.89,163.203z M167.583,144.377c-0.337-0.017-0.48-0.236-0.483-0.533 c-0.003-0.333,0.213-0.483,0.527-0.419c0.315,0.064,0.428,0.308,0.393,0.611C167.991,144.282,167.805,144.361,167.583,144.377z M166.366,143.016c-0.063,0.186-0.132,0.409-0.413,0.302c-0.197-0.075-0.357-0.192-0.337-0.444c0.066-0.212,0.215-0.318,0.433-0.267 c0.004,0.001,0.005-0.002,0.009-0.001c0.006,0.002,0.012,0.004,0.018,0.006C166.266,142.663,166.454,142.755,166.366,143.016z M164.403,133.902c-0.298,0.016-0.414-0.126-0.476-0.321c-0.081-0.256,0.079-0.38,0.291-0.416c0.209-0.036,0.424,0.078,0.425,0.282 C164.644,133.609,164.477,133.772,164.403,133.902z M144.629,121.822c0.001,0.084-0.159,0.224-0.261,0.243 c-0.237,0.044-0.381-0.108-0.436-0.334c-0.165-0.679,0.676-1.054,0.616-1.766C144.579,120.584,144.621,121.203,144.629,121.822z M136.173,102.537c0.012,0.22,0.023,0.44,0.035,0.66c-0.284-0.239-0.566-0.465-0.704-0.793c-0.066-0.157-0.108-0.33-0.084-0.551 c0.029-0.269-0.46-0.674,0.149-0.748c0.309-0.038,0.365,0.381,0.312,0.668c-0.041,0.219,0.046,0.377,0.146,0.531 C136.077,102.38,136.129,102.456,136.173,102.537z M135.136,89.978c0.061-0.243,0.286-0.353,0.485-0.311 c0.511,0.107,0.372,0.494,0.263,0.816c-0.053,0.155-0.044,0.435-0.349,0.37C135.182,90.658,135.038,90.366,135.136,89.978z M135.526,104.41c0.23-0.045,0.397,0.124,0.41,0.353c0.019,0.32-0.203,0.529-0.476,0.585c-0.204,0.042-0.38-0.129-0.419-0.455 C135.051,104.663,135.24,104.466,135.526,104.41z M156.066,53.175c-0.039-0.28,0.279-0.516,0.508-0.381 c0.086,0.051,0.154,0.211,0.151,0.319c-0.006,0.191-0.255,0.358-0.433,0.333C156.213,53.356,156.08,53.274,156.066,53.175z M165.62,68.979c-0.235,0.041-0.355-0.118-0.398-0.321c-0.053-0.248,0.123-0.346,0.319-0.396c0.265-0.068,0.319,0.141,0.382,0.314 C165.976,68.835,165.823,68.943,165.62,68.979z M165.738,72.524c-0.071,0.214-0.314,0.35-0.483,0.248 c-0.265-0.16-0.237-0.47-0.154-0.747c0.052-0.175,0.161-0.226,0.302-0.162C165.68,72,165.841,72.214,165.738,72.524z M165.528,67.068c-0.138-0.118-0.278-0.185-0.326-0.293c-0.052-0.118-0.048-0.282-0.014-0.411c0.105-0.396,0.542-0.764,0.706-0.609 c0.293,0.278,0.289,0.652,0.107,0.977C165.915,66.888,165.684,66.963,165.528,67.068z M160.854,74.427 c0.59-0.006,1.113,0.165,1.58,0.519c0.145,0.109,0.162,0.232,0.058,0.363c-0.042,0.054-0.071,0.125-0.123,0.163 c-0.373,0.27-0.809,0.26-1.229,0.211c-1.677-0.195-3.35-0.419-5.044-0.401c-0.224,0.002-0.394-0.179-0.375-0.405 c0.009-0.106,0.171-0.224,0.289-0.292c0.448-0.255,0.95-0.255,1.444-0.256c0.567-0.001,1.134,0.023,1.7,0.036 c0,0.008,0,0.017,0,0.025C159.72,74.405,160.287,74.433,160.854,74.427z M147.083,61.096c-0.039,0.203-0.078,0.407-0.116,0.61 c-0.031,0.167-0.128,0.246-0.28,0.195c-0.037-0.013-0.054-0.123-0.059-0.191c-0.013-0.206-0.05-0.421-0.004-0.615 c0.018-0.078,0.222-0.121,0.348-0.159C146.99,60.931,147.044,61.04,147.083,61.096z M146.392,67.43 c0.296,0.028,0.587,0.254,0.538,0.529c-0.081,0.452-0.308,0.879-0.483,1.34c-0.333-0.437-0.657-0.826-0.591-1.358 C145.891,67.65,146.057,67.399,146.392,67.43z M146.444,94.887c-0.092,0.066-0.188,0.185-0.276,0.18 c-0.082-0.004-0.158-0.142-0.236-0.22c0.056-0.04,0.107-0.092,0.169-0.118C146.267,94.659,146.383,94.716,146.444,94.887z M145.728,96.682c-0.087,0.123-0.178,0.391-0.314,0.416c-0.28,0.051-0.555-0.119-0.562-0.433c-0.003-0.15,0.168-0.39,0.312-0.438 C145.463,96.126,145.667,96.301,145.728,96.682z M137.446,92.555c-0.042,0.112-0.329,0.222-0.47,0.188 c-0.201-0.05-0.239-0.278-0.164-0.482c0.06-0.165,0.17-0.205,0.312-0.127C137.312,92.218,137.522,92.35,137.446,92.555z M176.788,95.086c0.023-0.052,0.089-0.091,0.143-0.123c0.155-0.092,0.257-0.049,0.302,0.12c0.001,0.155-0.081,0.228-0.245,0.217 C176.811,95.288,176.734,95.212,176.788,95.086z M158.471,114.122c-0.113,0.002-0.227-0.072-0.341-0.111 c0.047-0.112,0.094-0.223,0.142-0.335c0.111,0.057,0.252,0.088,0.327,0.176C158.716,113.988,158.652,114.119,158.471,114.122z M154.888,113.489c0.251-0.146,0.536-0.142,0.777,0.032c0.095,0.069,0.185,0.222,0.182,0.335c-0.007,0.249-0.209,0.328-0.43,0.353 c-0.291-0.018-0.55-0.12-0.675-0.392C154.706,113.741,154.799,113.54,154.888,113.489z M155.356,103.471 c0.021-0.037,0.158-0.054,0.163-0.044c0.043,0.094,0.069,0.196,0.1,0.296c-0.113,0.004-0.225,0.007-0.338,0.01 C155.304,103.644,155.312,103.547,155.356,103.471z M163.607,120.538c0.231-0.03,0.394,0.084,0.471,0.27 c0.118,0.284-0.194,0.823-0.426,0.742c-0.16-0.055-0.309-0.252-0.383-0.42C163.127,120.81,163.371,120.661,163.607,120.538z M163.787,108.005c0.006-0.293,0.11-0.533,0.471-0.456c0.21,0.045,0.321,0.2,0.309,0.424c-0.035,0.231-0.195,0.338-0.402,0.364 C163.933,108.366,163.782,108.244,163.787,108.005z M164.3,102.898c-0.03-0.112,0.029-0.273,0.096-0.381 c0.148-0.238,0.371-0.151,0.543-0.044c0.223,0.139,0.492,0.265,0.492,0.594c-0.035,0.059-0.055,0.13-0.102,0.164 C165.001,103.467,164.405,103.284,164.3,102.898z M179.749,95.41c-0.11,0.011-0.23-0.087-0.345-0.137 c0.088-0.065,0.173-0.175,0.266-0.183c0.114-0.01,0.236,0.065,0.355,0.104C179.933,95.271,179.847,95.4,179.749,95.41z M176.669,75.371c0.204-0.013,0.411,0.028,0.617,0.044c0.137,0.011,0.276,0.014,0.411,0.035c0.181,0.029,0.259,0.148,0.182,0.313 c-0.053,0.114-0.144,0.262-0.247,0.291c-0.266,0.075-0.55,0.08-0.822,0.137c-0.253,0.053-0.508,0.244-0.717-0.084 C175.959,75.895,176.332,75.393,176.669,75.371z M187.231,66.24c0.108,0.043,0.204,0.113,0.305,0.174 c-0.084,0.085-0.167,0.169-0.251,0.253c-0.06-0.097-0.133-0.19-0.173-0.295C187.102,66.345,187.21,66.231,187.231,66.24z M176.019,64.693c-0.011,0.691,0.234,1.184-0.019,1.635c-0.037,0.067-0.054,0.135-0.117,0.201c-0.284,0.293-0.71,0.509-0.84,0.299 c-0.177-0.286-0.033-0.503,0.132-0.743c0.017-0.025,0.034-0.056,0.052-0.082C175.464,65.645,175.678,65.26,176.019,64.693z M166.225,61.741c0.062,0.05,0.085,0.254,0.036,0.311c-0.067,0.079-0.22,0.086-0.336,0.124c-0.048-0.104-0.158-0.228-0.132-0.309 C165.862,61.653,166.051,61.599,166.225,61.741z M158.352,55.611c0.023,0.263-0.184,0.354-0.401,0.321 c-0.244-0.036-0.371-0.226-0.299-0.462c0.032-0.105,0.191-0.171,0.291-0.253C158.181,55.245,158.333,55.391,158.352,55.611z M156.111,45.157c0.659-0.008,0.987-0.43,0.848-1.045c-0.105-0.467-0.351-0.903-0.465-1.369c-0.065-0.267,0.013-0.587,0.364-0.648 c0.239-0.041,0.344,0.165,0.4,0.367c0.209,0.756-0.114,1.657,0.695,2.248c-0.166,0.206-0.261,0.441-0.423,0.505 c-0.444,0.174-0.911,0.307-1.38,0.394c-0.234,0.043-0.674,0.536-0.701-0.145C155.438,45.18,155.793,45.161,156.111,45.157z M148.839,55.125c0.683,0,1.365-0.007,2.048-0.003c0.029,0,0.057,0.081,0.086,0.124c-0.901,0.301-1.582,0.431-2.079,0.345 c-0.104-0.018-0.2-0.173-0.269-0.284C148.553,55.19,148.642,55.125,148.839,55.125z M147.639,39.944 c0.037-0.029,0.143-0.027,0.171,0.004c0.077,0.083,0.13,0.189,0.192,0.286c-0.124,0.008-0.267,0.058-0.368,0.013 C147.503,40.188,147.513,40.042,147.639,39.944z M147.401,41.608c0.358,0.005,0.462,0.262,0.423,0.554 c-0.025,0.188-0.107,0.413-0.243,0.53c-0.122,0.105-0.575-0.448-0.6-0.732C147.022,41.718,147.182,41.605,147.401,41.608z M147.411,48.933c0.064-0.022,0.176-0.057,0.195-0.032c0.071,0.095,0.114,0.212,0.162,0.309c0.019,0.399-0.168,0.668-0.507,0.826 c-0.102,0.047-0.29,0.086-0.337,0.035c-0.079-0.086-0.111-0.249-0.102-0.375C146.848,49.32,147.049,49.059,147.411,48.933z M146.66,57.148c0.031-0.265,0.288-0.473,0.622-0.448c0.105,0.081,0.309,0.175,0.3,0.24c-0.08,0.556-0.187,1.109-0.315,1.656 c-0.023,0.1-0.18,0.235-0.275,0.235c-0.105,0-0.294-0.129-0.301-0.214C146.65,58.128,146.602,57.631,146.66,57.148z M139.1,64.824 c-0.045,0.151-0.143,0.208-0.296,0.17C138.845,64.836,138.839,64.598,139.1,64.824z M138.697,65.101 c-0.527,0.433-1.041,0.881-1.588,1.286c-0.16,0.118-0.449,0.09-0.533-0.136c-0.061-0.163-0.051-0.486,0.051-0.555 c0.646-0.435,1.208-0.943,1.636-1.596C138.391,64.44,138.144,64.944,138.697,65.101z M136.969,56.221 c0.033-0.074,0.236-0.084,0.363-0.097c0.06-0.006,0.17,0.04,0.181,0.083c0.085,0.332,0.151,0.669,0.2,0.898 c-0.072,0.513-0.027,0.963-0.472,1.18c-0.317,0.154-0.678-0.464-0.591-1.096C136.696,56.856,136.832,56.531,136.969,56.221z M136.662,62.615c0.272-0.105,0.321,0.127,0.382,0.316c-0.066,0.107-0.12,0.291-0.202,0.306c-0.215,0.037-0.402-0.085-0.398-0.321 C136.445,62.81,136.561,62.654,136.662,62.615z M127.248,60.527c0.031-0.093,0.149-0.158,0.228-0.235 c0.241,0.21,0.215,0.47,0.145,0.731c-0.015,0.055-0.114,0.141-0.137,0.131C127.198,61.029,127.162,60.787,127.248,60.527z M126.318,64.545c0.011-0.034,0.117-0.037,0.179-0.054c0.032,0.118,0.063,0.237,0.095,0.355c-0.086,0.141-0.222,0.175-0.311,0.038 C126.232,64.808,126.283,64.654,126.318,64.545z M61.606,23.411c0.275-0.131,0.638,0.391,0.623,0.869 c-0.037,0.214-0.135,0.383-0.353,0.447c-0.37,0.109-0.668-0.289-0.588-0.852C61.313,23.704,61.457,23.482,61.606,23.411z M60.523,46.167c0.045-0.176,0.163-0.223,0.315-0.149c0.058,0.028,0.14,0.045,0.169,0.092c0.339,0.563,0.392,1.156,0.162,1.771 c-0.061,0.162-0.185,0.225-0.333,0.149c-0.112-0.057-0.272-0.141-0.291-0.236c-0.067-0.335-0.082-0.681-0.123-1.095 C60.445,46.568,60.472,46.365,60.523,46.167z M20.076,105.454c-0.235-0.054-0.346-0.209-0.356-0.424 c-0.023-0.492,0.307-0.866,0.701-0.752c0.159,0.046,0.351,0.249,0.382,0.409C20.879,105.082,20.451,105.49,20.076,105.454z M26.86,185.46c-0.02,0.071-0.233,0.141-0.338,0.12c-0.106-0.021-0.275-0.166-0.267-0.24c0.04-0.387,0.047-0.809,0.485-1.018 C27.031,184.678,26.967,185.075,26.86,185.46z M27.756,165.066c-0.105,0.027-0.284-0.023-0.351-0.105 c-0.125-0.153-0.263-0.353-0.261-0.533c0.001-0.16,0.149-0.372,0.294-0.465c0.228-0.146,0.361,0.058,0.43,0.251 c0.068,0.188,0.098,0.389,0.143,0.573C27.918,164.895,27.852,165.041,27.756,165.066z M28.137,151.3 c-0.195,0.134-0.38,0.071-0.402-0.176c-0.008-0.089,0.125-0.245,0.222-0.273c0.088-0.025,0.214,0.081,0.324,0.13 C28.236,151.091,28.22,151.244,28.137,151.3z M28.115,144.24c-0.048-0.001-0.123-0.084-0.137-0.141 c-0.089-0.352,0.196-0.455,0.426-0.609c0.066,0.084,0.184,0.165,0.185,0.249C28.595,144.044,28.449,144.248,28.115,144.24z M28.34,142.545c-0.191-0.087-0.318-0.26-0.264-0.472c0.052-0.204,0.222-0.403,0.433-0.315c0.129,0.054,0.176,0.306,0.244,0.436 C28.656,142.422,28.632,142.678,28.34,142.545z M58.154,123.101c-0.307,0.033-0.514-0.108-0.52-0.443 c-0.005-0.288,0.077-0.527,0.415-0.574c0.291,0.035,0.506,0.177,0.547,0.479C58.639,122.88,58.458,123.068,58.154,123.101z M62.996,158.208c-0.472,0.006-0.97,0.194-1.408-0.135c-0.252-0.189-0.509-0.176-0.779-0.061c-0.041-0.077-0.037-0.152,0.012-0.225 c0.581,0.223,0.829-0.422,1.299-0.497c0.349-0.056,0.697-0.103,0.991,0.145c0.098,0.083,0.195,0.22,0.207,0.341 C63.338,157.989,63.235,158.205,62.996,158.208z M64.724,119.725c-0.216,0.081-0.401-0.018-0.412-0.258 c-0.005-0.111,0.098-0.31,0.18-0.326c0.207-0.041,0.391,0.055,0.431,0.315C64.865,119.538,64.817,119.69,64.724,119.725z M67.474,123.553c-0.344-0.017-0.394-0.316-0.429-0.571c-0.013-0.093,0.125-0.284,0.217-0.3c0.466-0.082,0.274,0.336,0.401,0.48 C67.583,123.336,67.523,123.555,67.474,123.553z M71.928,134.301c0,0,27.888-46.882,26.252-76.878 c-0.053-0.969-0.169-1.887-0.335-2.764l28.898,16.071c0.051-0.055,0.105-0.11,0.198-0.124c0.126-0.02,0.326,0.015,0.39,0.101 c0.119,0.159,0.192,0.334,0.271,0.501l9.345,5.197l-0.936,3.061c0.001,0,0.001,0,0.002,0c-14.441,9.533-6.743,23.686-6.743,23.686 c1.454-0.047,3.013-0.215,4.634-0.47c-1.344,7.587,1.314,15.658,7.684,20.909c1.522,1.255,3.17,2.246,4.883,3.029l-0.009,0.025h0 l-1.592,4.164l-3.126,8.174c-0.516-0.063-1.019-0.11-1.534-0.171c-0.87-0.103-1.748-0.218-2.615-0.317 c-2.126-0.241-4.237-0.467-6.331-0.681c-0.127-0.013-0.253-0.026-0.38-0.039c-2.007-0.204-3.996-0.396-5.962-0.577 c-0.071-0.007-0.145-0.014-0.216-0.021c0,0,0,0.001,0,0.002C95.691,134.515,71.928,134.301,71.928,134.301z M104.5,165.642 c-0.084,0.096-0.168,0.191-0.253,0.287c-0.159,0.03-0.282-0.045-0.259-0.21c0.015-0.109,0.141-0.204,0.218-0.305 C104.303,165.491,104.402,165.566,104.5,165.642z M103.33,195.111c-0.185-0.261-0.379-0.424-0.619-0.054 c0.082-1.833,0.194-2.147,0.565-1.85C104.018,193.802,103.162,194.477,103.33,195.111z M103.033,203.934 c-0.042,0.199-0.108,0.431-0.333,0.43c-0.35-0.002-0.425-0.297-0.401-0.573c0.021-0.232,0.229-0.35,0.447-0.31 C102.966,203.522,103.042,203.716,103.033,203.934z M104.694,158.2c0.021-0.242,0.259-0.333,0.452-0.251 c0.269,0.115,0.465,0.349,0.349,0.668c-0.034,0.093-0.231,0.127-0.353,0.188C104.812,158.737,104.668,158.502,104.694,158.2z M113.784,157.001c0.024-0.088,0.208-0.195,0.31-0.186c0.231,0.02,0.348,0.194,0.254,0.416c-0.041,0.097-0.189,0.148-0.288,0.22 C113.86,157.365,113.728,157.21,113.784,157.001z M123.242,149.524c-0.01-0.082,0.119-0.229,0.216-0.269 c0.204-0.083,0.373-0.012,0.418,0.242c-0.06,0.088-0.116,0.258-0.198,0.272C123.495,149.799,123.272,149.758,123.242,149.524z M124.51,148.012c-0.113-0.027-0.217-0.093-0.327-0.143c0.092-0.075,0.175-0.196,0.276-0.213c0.17-0.029,0.254,0.087,0.203,0.246 C124.645,147.952,124.551,148.022,124.51,148.012z M99.535,299.178c-0.023,0.298-0.13,0.554-0.632,0.516 c-0.113-0.018-0.239-0.172-0.198-0.398c0.051-0.286,0.193-0.561,0.524-0.56C99.463,298.737,99.551,298.969,99.535,299.178z M97.103,198.243c-0.172,0.242-0.424,0.268-0.677,0.192c-0.189-0.057-0.358-0.249-0.231-0.418c0.086-0.115,0.35-0.137,0.532-0.129 C96.917,197.895,97.103,197.987,97.103,198.243z M94.772,407.291c-0.066,0.111-0.106,0.27-0.203,0.323 c-0.274,0.148-0.614-0.196-0.606-0.628c0.002-0.117,0.083-0.277,0.179-0.338C94.36,406.51,94.74,406.906,94.772,407.291z M93.83,192.62c-0.046,0.288-0.178,0.528-0.484,0.562c-0.256,0.028-0.297-0.195-0.3-0.395c-0.004-0.297,0.079-0.534,0.556-0.516 C93.698,192.286,93.873,192.349,93.83,192.62z M92.187,222.598c-0.133,0.067-0.24,0.019-0.292-0.154 c-0.039-0.13-0.079-0.268-0.073-0.4c0.019-0.478,0.352-0.941,0.65-0.89c0.098,0.017,0.229,0.152,0.252,0.254 C92.835,221.907,92.587,222.428,92.187,222.598z M90.514,266.33c0.051-0.064,0.263-0.08,0.334-0.027 c0.075,0.056,0.068,0.22,0.097,0.337c-0.106,0.055-0.239,0.179-0.314,0.151C90.415,266.708,90.376,266.503,90.514,266.33z M88.978,303.005c0.101,0.067,0.219,0.118,0.298,0.205c0.114,0.127,0.076,0.278-0.085,0.293c-0.098,0.009-0.232-0.096-0.308-0.186 C88.775,303.19,88.825,303.071,88.978,303.005z M84.452,414.084c0.053-0.083,0.234-0.085,0.353-0.123 c0.287,0.106,0.445,0.326,0.47,0.612c0.025,0.282-0.069,0.55-0.351,0.671c-0.105,0.045-0.322,0.034-0.371-0.034 C84.309,414.864,84.204,414.473,84.452,414.084z M79.367,400.158c0.374,0.027,0.674,0.162,0.702,0.544 c-0.075,0.304-0.236,0.399-0.471,0.363c-0.367-0.055-0.702-0.18-0.687-0.626C78.92,400.179,79.162,400.144,79.367,400.158z M78.038,344.703c0.054,0.089,0.122,0.174,0.156,0.27c0.011,0.032-0.063,0.094-0.098,0.142c-0.089-0.07-0.178-0.14-0.27-0.213 C77.897,344.835,77.968,344.769,78.038,344.703z M77.562,409.825c0.17-0.085,0.356-0.215,0.529-0.204 c0.482,0.031,0.768,0.244,0.818,0.522c-0.02,0.065-0.019,0.155-0.063,0.192c-0.34,0.288-1.058,0.113-1.276-0.311 C77.542,409.968,77.537,409.838,77.562,409.825z M74.249,322.154c0.089,0.041,0.273,0.069,0.297,0.147 c0.073,0.23-0.083,0.361-0.302,0.358c-0.12-0.002-0.323-0.068-0.342-0.143C73.845,322.287,74.008,322.175,74.249,322.154z M114.322,218.454c-0.286-0.096-0.482-0.277-0.402-0.604c0.054-0.22,0.25-0.295,0.465-0.314c0.29,0.076,0.451,0.287,0.514,0.562 C114.959,218.359,114.631,218.558,114.322,218.454z M115.006,208.737c0.004-0.245,0.218-0.315,0.427-0.355 c0.098,0.071,0.251,0.124,0.284,0.219c0.084,0.237-0.073,0.383-0.29,0.418C115.222,209.053,115.002,208.998,115.006,208.737z M116.096,218.503c-0.209-0.026-0.439-0.088-0.473-0.335c-0.016-0.112,0.069-0.262,0.151-0.358c0.209-0.245,0.513-0.31,0.745-0.113 c0.256,0.218,0.431,0.532,0.718,0.904C116.781,218.564,116.437,218.546,116.096,218.503z M117.961,320.965 c-0.069,0.086-0.235,0.095-0.355,0.138c-0.206-0.123-0.241-0.314-0.169-0.515c0.077-0.217,0.248-0.302,0.442-0.151 C118.052,320.572,118.105,320.786,117.961,320.965z M120.187,273.698c0.278,0.137,0.555,0.273,0.833,0.41 c-0.005-0.009-0.005-0.015-0.011-0.024c0,0,0.046,0.042,0.046,0.042c-0.012-0.006-0.024-0.012-0.035-0.017 c0.161,0.269,0.039,0.424-0.239,0.468c-0.178,0.028-0.367-0.012-0.551-0.021C120.215,274.269,120.201,273.983,120.187,273.698z M121.15,275.503c-0.324,0.031-0.524-0.147-0.491-0.312c0.025-0.123,0.324-0.257,0.504-0.261c0.175-0.004,0.511,0.163,0.505,0.233 C121.64,275.5,121.308,275.449,121.15,275.503z M121.75,262.5c-0.152,0.073-0.289-0.025-0.251-0.18 c0.028-0.112,0.155-0.226,0.267-0.282c0.147-0.075,0.243,0.015,0.249,0.189C121.929,262.321,121.858,262.448,121.75,262.5z M132.726,208.792c-0.037,0.084-0.222,0.103-0.344,0.155c-0.471-0.188-0.539-0.592-0.477-1.013c0.032-0.217,0.275-0.311,0.465-0.191 C132.755,207.987,132.922,208.35,132.726,208.792z M135.755,200.104c-0.078,0.3-0.359,0.375-0.641,0.34 c-0.293-0.035-0.543-0.19-0.476-0.517c0.064-0.314,0.357-0.345,0.65-0.32C135.525,199.687,135.852,199.731,135.755,200.104z M142.791,316.272c-0.163,0.058-0.265-0.012-0.299-0.196c0.081-0.073,0.163-0.208,0.258-0.218c0.161-0.018,0.235,0.113,0.179,0.271 C142.91,316.187,142.849,316.252,142.791,316.272z M143.23,325.281c0.008-0.024,0.119-0.034,0.174-0.02 c0.168,0.044,0.2,0.149,0.104,0.294c-0.108,0.014-0.217,0.027-0.325,0.04C143.196,325.489,143.198,325.38,143.23,325.281z M143.608,354.802c-0.1-0.006-0.213-0.139-0.282-0.239c-0.094-0.137-0.022-0.243,0.113-0.346c0.441-0.337,1.132,0.07,1.485-0.51 c0,0,0.014,0.058,0.013,0.051C144.697,354.36,144.352,354.845,143.608,354.802z M148.541,345.513 c-0.654,0.287-1.413,0.3-2.063,0.068c-0.789-0.281-1.504-0.226-2.264-0.001c-0.185,0.055-0.468-0.01-0.435-0.295 c0.021-0.179,0.148-0.412,0.298-0.496c0.422-0.235,0.989-0.068,1.37-0.459c0.063,0.331,0.007,0.733,0.481,0.823 c0.839,0.161,1.679,0.326,2.465-0.192C148.77,345.064,148.849,345.378,148.541,345.513z M152.102,279.156 c-0.223-0.061-0.343-0.237-0.327-0.464c0.026-0.371,0.408-0.623,0.765-0.49c0.104,0.039,0.16,0.205,0.238,0.313 C152.739,278.849,152.355,279.225,152.102,279.156z M152.881,270.301c-0.141,0.14-0.326,0.327-0.496,0.331 c-0.466,0.01-0.97,0.132-1.592-0.42c0.764-0.182,1.351-0.332,1.944-0.453c0.081-0.017,0.262,0.105,0.273,0.18 C153.026,270.054,152.966,270.217,152.881,270.301z M151.889,268.669c-0.294,0.338-0.644,0.04-0.899-0.202 c-0.089-0.084-0.172-0.265-0.139-0.363c0.034-0.104,0.199-0.194,0.324-0.231c0.343-0.102,0.732-0.158,1.012,0.079 c0.388,0.329,0.826,0.063,1.232,0.203C152.932,268.406,152.321,268.173,151.889,268.669z M154.461,365.253 c-0.063-0.079-0.357-0.485,0-0.353c0.66,0.244,1.04-0.387,1.587-0.299c0.111,0.018,0.263,0.139,0.287,0.239 c0.023,0.094-0.074,0.295-0.159,0.324c-0.328,0.108-0.683,0.134-1.008,0.25c-0.299,0.107-0.372,0.381-0.323,0.683 c-0.147-0.045-0.294-0.089-0.441-0.134C154.654,365.745,154.677,365.526,154.461,365.253z M155.465,375.586 c-0.269,0.037-0.659,0.56-0.805-0.077c-0.091-0.397,0.326-0.566,0.605-0.777c0.746-0.563,1.258,0.193,1.838,0.545 C156.557,375.384,156.014,375.511,155.465,375.586z M157.394,277.946c0.177-0.43,0.314-0.92,0.622-1.239 c0.257-0.266,0.671-0.038,0.931,0.217c0.137,0.135,0.202,0.343,0.299,0.518c-0.578,0.198-0.952,0.808-1.628,0.807 C157.538,278.146,157.369,278.007,157.394,277.946z M158.968,297.879c-0.002,0,0.026-0.021,0.026-0.021 c-0.012,0.032,0.007,0.05,0.003,0.078C158.985,297.917,158.983,297.897,158.968,297.879z M159.411,298.789 c-0.085,0.202-0.361,0.049-0.379-0.164c-0.012-0.135,0.025-0.274,0.033-0.411C159.223,298.407,159.518,298.532,159.411,298.789z M160.455,194.996c0.04-0.101,0.209-0.152,0.319-0.226c0.23,0.044,0.473,0.479,0.346,0.67c-0.066,0.1-0.239,0.203-0.346,0.187 C160.409,195.571,160.335,195.301,160.455,194.996z M161.42,307.35c-0.228,0.059-0.388-0.084-0.458-0.307 c-0.045-0.146,0.024-0.273,0.201-0.291c0.206-0.021,0.411,0.02,0.462,0.291C161.564,307.142,161.513,307.326,161.42,307.35z M161.269,270.533c-0.319-0.034-0.529-0.452-0.392-0.773c0.086-0.202,0.283-0.323,0.477-0.23c0.284,0.136,0.622,0.268,0.604,0.663 C161.806,270.51,161.544,270.563,161.269,270.533z M162.243,191.24c-0.345,0.062-0.478-0.206-0.541-0.48 c-0.084-0.366,0.169-0.502,0.465-0.528c0.294-0.025,0.529,0.099,0.589,0.434C162.708,190.961,162.54,191.186,162.243,191.24z M162.706,181.714c-0.291-0.11-0.437-0.374-0.322-0.686c0.036-0.098,0.238-0.217,0.334-0.195c0.291,0.065,0.491,0.252,0.46,0.586 C163.093,181.641,162.917,181.793,162.706,181.714z M163.929,394.711c-0.165-0.025-0.233-0.182-0.129-0.308 c0.066-0.079,0.255-0.142,0.333-0.102c0.086,0.044,0.109,0.213,0.159,0.328C164.17,394.66,164.043,394.729,163.929,394.711z M166.657,365.795c-0.346,0.383-0.792,0.557-1.299,0.554c-0.24-0.001-0.329-0.197-0.38-0.409c-0.047-0.194-0.113-0.383-0.165-0.576 c-0.088-0.325-0.996-0.28-0.468-0.798c0.275-0.27,0.517,0.249,0.71,0.526c0.354,0.509,0.911,0.093,1.344,0.258 c0.105,0.04,0.181,0.158,0.267,0.238C166.665,365.662,166.692,365.757,166.657,365.795z M166.903,277.884 c0.127-0.028,0.257-0.088,0.379-0.074c0.17,0.02,0.239,0.17,0.131,0.297c-0.062,0.073-0.245,0.114-0.332,0.075 C166.994,278.145,166.96,277.989,166.903,277.884z M167.365,279.916c0.255-0.102,0.5-0.238,0.763-0.307 c0.084-0.022,0.279,0.103,0.302,0.193c0.028,0.107-0.038,0.311-0.126,0.361c-0.234,0.134-0.503,0.208-0.725,0.292 c-0.157-0.087-0.304-0.121-0.365-0.213C167.12,280.102,167.201,279.982,167.365,279.916z M169.253,356.385 c-0.216,0.019-0.398-0.04-0.402-0.284c-0.001-0.079,0.155-0.238,0.202-0.224c0.118,0.033,0.229,0.129,0.314,0.225 C169.499,356.25,169.45,356.354,169.253,356.385z M169.028,346.534c-0.217-0.076-0.313-0.289-0.204-0.497 c0.153-0.29,0.43-0.342,0.707-0.197c0.083,0.043,0.098,0.216,0.145,0.329C169.541,346.438,169.356,346.65,169.028,346.534z M169.943,366.157c-0.072-0.111-0.194-0.215-0.202-0.328c-0.031-0.432,0.321-0.351,0.566-0.356c0.077-0.001,0.227,0.165,0.224,0.249 C170.517,366.089,170.198,366.089,169.943,366.157z M168.015,326.988c-0.181,0.064-0.466-0.06-0.481-0.289 c-0.019-0.294,0.192-0.493,0.494-0.55c0.064-0.012,0.136,0.021,0.204,0.033c0.35,0.389,0.718,0.358,1.097,0.046 c0.561,0.141,1.242,0.048,1.501,0.775c0,0,0.053,0.037,0.055,0.038C169.927,327.269,168.986,326.642,168.015,326.988z M172.724,414.141c-0.161-0.04-0.351-0.258-0.389-0.428c-0.051-0.23,0.179-0.334,0.39-0.382c0.231,0.045,0.366,0.189,0.362,0.42 C173.083,413.979,172.946,414.196,172.724,414.141z M173.372,355.113c-0.243-0.02-0.421-0.161-0.412-0.377 c0.017-0.436,0.397-0.506,0.725-0.571c0.075-0.015,0.243,0.14,0.272,0.244C174.047,354.739,173.742,355.081,173.372,355.113z M174.445,339.53c-0.116,0.002-0.258-0.091-0.345-0.182c-0.2-0.21-0.324-0.464-0.195-0.758c0.054-0.122,0.141-0.265,0.251-0.319 c0.229-0.111,0.414,0.009,0.501,0.23c0.076,0.192,0.11,0.4,0.145,0.533C174.778,339.332,174.691,339.526,174.445,339.53z M172.593,337.016c-0.567,0.437-1.042,0.22-1.525-0.412c1.089-0.425,2.238-0.755,2.863-1.83c0.176,0.411,0.503,0.5,0.907,0.426 C174.09,335.807,173.355,336.429,172.593,337.016z M173.96,333.924c-0.074-0.264,0.03-0.421,0.29-0.485 C174.154,333.6,174.057,333.762,173.96,333.924z M174.981,334.481c-0.298-0.332-0.048-0.983-0.66-1.13 c0.012-0.228,0.119-0.395,0.352-0.407c0.218-0.011,0.431,0.129,0.432,0.331C175.107,333.676,175.027,334.079,174.981,334.481z M180.848,395.242c-0.082,0.223-0.18,0.523-0.52,0.375c-0.131-0.057-0.232-0.321-0.238-0.495c-0.009-0.237,0.224-0.314,0.421-0.29 C180.704,394.855,180.924,394.92,180.848,395.242z M181.125,327.735c-1.062,0.095-2.148,0.197-3.163-0.166 c-0.748-0.267-1.264-0.081-1.632,0.517c-0.406,0.659-0.91,0.617-1.605,0.613c-0.736-0.005-0.658-0.545-0.915-0.844 c-0.026-0.014-0.055-0.008-0.081-0.025c0,0,0.047-0.028,0.046-0.028c0.016,0.015,0.021,0.037,0.035,0.053 c0.291,0.153,0.601,0.125,0.914,0.088c0.439-0.051,0.684-0.197,0.81-0.714c0.223-0.912,0.293-0.883,1.254-0.645 c0.396,0.098,0.808,0.137,1.212,0.203c0.076,0.188,0.11,0.502,0.235,0.544c0.85,0.282,1.729,0.403,2.593,0.074 c0.098-0.037,0.085-0.368,0.124-0.563c0.357-0.042,0.505,0.161,0.547,0.476C181.537,327.598,181.335,327.716,181.125,327.735z M180.743,308.158c-0.015-0.03,0.047-0.118,0.093-0.158c0.103-0.089,0.206-0.194,0.329-0.241c0.381-0.146,0.786-0.336,1.119,0.072 c0.061,0.075,0.028,0.276-0.026,0.388c-0.185,0.386-0.556,0.323-0.894,0.331c-0.134-0.026-0.286-0.022-0.396-0.089 C180.867,308.401,180.801,308.27,180.743,308.158z M182.666,367.773c-0.195,0.279-0.461,0.19-0.682-0.011 c-0.098-0.09-0.175-0.202-0.262-0.304c0.055-0.185,0.111-0.369,0.166-0.553c0.187,0.071,0.385,0.121,0.557,0.218 C182.701,367.266,182.851,367.508,182.666,367.773z M196.808,376.264c0.034-0.097,0.189-0.219,0.283-0.214 c0.244,0.014,0.293,0.204,0.254,0.421c-0.093,0.075-0.195,0.221-0.279,0.212C196.839,376.658,196.733,376.475,196.808,376.264z M203.221,376.285c0.302-0.08,0.793,0.233,0.796,0.462c-0.079,0.246-0.281,0.294-0.49,0.283c-0.281-0.015-0.554-0.093-0.54-0.446 C202.99,376.477,203.119,376.311,203.221,376.285z M196.255,347.012c0.39-0.113,0.796-0.169,1.107-0.226 c0.229,0.068,0.39,0.073,0.479,0.155c0.074,0.069,0.126,0.276,0.078,0.342c-0.355,0.483-1.181,0.625-1.629,0.255 C196.192,347.457,196.213,347.024,196.255,347.012z M192.098,308.153c0.091-0.331,0.373-0.377,0.656-0.274 c0.486,0.177,0.779,0.609,0.629,0.918c-0.047,0.097-0.204,0.141-0.311,0.21c-0.193-0.071-0.39-0.132-0.577-0.217 C192.226,308.668,192.01,308.475,192.098,308.153z M185.415,289.285c0.333-0.155,0.229-0.469,0.235-0.738 c0.578,0.548,0.613,0.59,0.076,1.034c-0.32,0.264-0.604,0.375-0.018,0.605c0.392,0.154,0.561,0.411,0.305,0.8 c-0.213,0.324-0.458,0.628-0.705,0.962c-0.088-0.971-0.52-1.703-1.283-2.244C184.561,289.804,184.973,289.491,185.415,289.285z M184.251,278.919c-0.174-0.003-0.348-0.005-0.522-0.007C183.906,278.732,184.08,278.732,184.251,278.919z M182.959,278.91 c-0.155,0.138-0.31,0.276-0.466,0.413c-0.488,0.017-0.978,0.06-1.464,0.039c-0.212-0.009-0.364-0.198-0.36-0.442 c0.003-0.222,0.103-0.468,0.316-0.463C181.668,278.473,182.409,278.299,182.959,278.91z M185.116,146.659 c0.002-0.003,0.005-0.006,0.007-0.01c-0.264-0.067-0.544-0.125-0.809-0.191c-2.148-0.536-4.325-1.057-6.55-1.547 c-0.002,0-0.003-0.001-0.005-0.001c-2.097-0.462-4.224-0.903-6.374-1.326c0,0.004-0.001,0.01-0.001,0.014 c-0.016,0.519,0.143,0.581,0.84,0.799c0.234,0.073,0.647-0.009,0.512,0.422c-0.092,0.292-0.428,0.312-0.715,0.298 c-0.07-0.003-0.139-0.018-0.209-0.028c-1.079-0.065-1.651-0.826-1.436-1.698c0-0.001,0-0.002,0.001-0.003 c-0.043-0.008-0.087-0.016-0.13-0.024c-0.035-0.007-0.069-0.015-0.105-0.022c-0.143-0.028-0.29-0.051-0.434-0.078 c-1.476-0.282-2.958-0.559-4.452-0.823l5.16-17.186c3.718-3.551,6.721-7.052,9.074-10.468c0.005-0.023-0.011-0.039-0.001-0.063 c0.036-0.086,0.099-0.137,0.166-0.174c0.06-0.088,0.126-0.176,0.184-0.264c3.693-1.308,7.059-3.243,6.858-5.958 c-0.12-1.634-1.007-2.623-2.285-3.21c1.22-3.883,1.39-7.565,0.541-10.984l15.482-2.94v25.622c-3.146,0.63-5.516,3.404-5.516,6.735 v25.858C191.787,148.428,188.5,147.517,185.116,146.659z M200.104,171.519c-0.043-0.05-0.085-0.1-0.127-0.149 c0.053-0.039,0.109-0.112,0.157-0.107c0.048,0.005,0.086,0.09,0.129,0.14C200.21,171.441,200.157,171.48,200.104,171.519z M208.766,192.216c-0.009,0.026-0.137,0.156-0.366,0.083c-0.185-0.059-0.391-0.135-0.301-0.401c0.065-0.19,0.165-0.376,0.417-0.289 C208.706,191.675,208.874,191.784,208.766,192.216z M277.219,200.424c0.093-0.007,0.198,0.126,0.296,0.195 c-0.004,0.225-0.102,0.396-0.335,0.396c-0.103,0-0.284-0.111-0.294-0.19C276.855,200.606,277.003,200.441,277.219,200.424z M276.424,234.641c0.043,0.088,0.15,0.204,0.133,0.296c-0.04,0.212-0.224,0.323-0.427,0.275c-0.071-0.017-0.157-0.217-0.139-0.317 C276.029,234.684,276.19,234.582,276.424,234.641z M249.921,263.993c0.312-0.243,0.665-0.223,0.977-0.034 c0.158,0.096,0.332,0.304,0.344,0.472c0.015,0.228-0.241,0.302-0.45,0.334c-0.138,0.021-0.279,0.019-0.419,0.028 c-0.139-0.013-0.289,0.002-0.413-0.048c-0.114-0.046-0.245-0.142-0.289-0.249C249.574,264.261,249.762,264.116,249.921,263.993z M278.18,275.012c-0.416,0.006-0.834-0.028-1.249-0.076c-0.225-0.026-0.381-0.187-0.377-0.416c0.004-0.241,0.165-0.375,0.412-0.381 c0.07-0.002,0.14,0.014,0.313,0.033c0.245,0.053,0.597,0.11,0.934,0.214c0.092,0.029,0.202,0.207,0.192,0.305 C278.392,274.81,278.262,275.011,278.18,275.012z M305.626,287.437c-0.141-0.169-0.277-0.305-0.381-0.463 c-0.098-0.148-0.039-0.289,0.137-0.304c0.238-0.021,0.388,0.137,0.409,0.358C305.802,287.139,305.701,287.262,305.626,287.437z M159.655,75.086c0.715-0.385,1.443-0.422,2.281,0.013C161.11,75.489,160.392,75.331,159.655,75.086z" fill="#ffb1b2"/></g><g id="change2_1"><path d="M265.2,520.542c0,0-23.431,7.326-37.226,5.659c-13.796-1.666-17.532-6.863-19.031-9.966 c-1.499-3.103-2.1-7.796-2.1-7.796l-7.577-2.003l-0.979-6.926l1.259-0.928c0.067,0.09,0.157,0.166,0.275,0.192 c0.04,0.009,3.929,0.902,6.904,4.767c5.978,7.764,13.857,12.25,22.786,12.974c0.987,0.081,2.026,0.117,3.107,0.117 c12.242,0,29.664-4.716,29.852-4.767c0.093-0.025,0.151-0.096,0.211-0.163l1.455,1.307L265.2,520.542z M216.651,492.301 c1.998,5.425,4.725,10.344,16.007,10.91c11.063,0.564,27.295-3.635,27.888-3.789c-2.069-4.25-20.024-12.359-20.024-12.359 l-9.169-20.099c0,0-0.914-1.014-2.55-2.019c-1.929-1.185-4.865-2.357-8.542-1.838c-5.818,0.822-9.992,5.379-11.074,6.676 c0.071,0.058,0.145,0.116,0.174,0.21C209.413,470.158,214.563,486.627,216.651,492.301z M200.025,497.831 c0.174,0.038,4.263,0.964,7.464,5.121c5.806,7.541,13.449,11.899,22.1,12.6c11.965,0.962,32.422-4.563,32.627-4.62 c0.028-0.007,0.051,0.013,0.079,0.01c-0.168-1.584-0.774-7.056-1.484-10.591c-0.402,0.104-14.919,3.875-26.042,3.875 c-0.738,0-1.458-0.017-2.16-0.051c-11.87-0.598-14.751-5.8-16.863-11.544c-2.098-5.695-7.255-22.187-7.306-22.353 c-0.045-0.14-0.012-0.276,0.061-0.391l-6.699-4.172c0,0-3.306,11.829-3.837,18.728c-0.455,5.906,1.3,11.84,1.816,13.432 C199.861,497.85,199.939,497.814,200.025,497.831z M114.414,495.749c-0.058,0.122-0.156,0.223-0.296,0.263 c-0.078,0.021-7.991,2.162-20.547,2.441c-6.482,0.145-10.393,1.83-14.922,3.78c-4.332,1.867-9.243,3.982-17.546,5.438 c-3.04,0.534-5.889,0.753-8.52,0.753c-12.235,0-19.75-4.752-19.841-4.81c-0.073-0.047-0.131-0.113-0.17-0.191 c-0.036-0.072-0.873-1.771-1.542-4.195l-2.69,2.819l1.097,5.833c0,0,4.717,6.039,18.158,6.888c12.9,0.814,20.844-0.949,28.864-3.798 c8.292-2.946,16.941-6.155,16.941-6.155l0.628,5.288c7.296-0.135,23.864-4.295,23.864-4.295l-1.056-8.893L114.414,495.749z M45.649,490.582c10.004,1.615,26.732-3.165,32.016-5.433c5.13-2.205,20.371-15.539,20.524-15.673 c0.003-0.003,0.008-0.001,0.012-0.004c-1.841-2.162-11.534-13-17.25-8.712c-0.299,0.224-0.59,0.475-0.865,0.785 c-6.333,7.136-12.197,13.279-12.197,13.279s-26.598,3.509-34.538,11.763c0.008,0.007,0.02,0.005,0.027,0.012 C33.395,486.621,35.751,488.985,45.649,490.582z M31.922,498.841c0.551,2.037,1.251,3.595,1.455,4.029 c1.188,0.713,11.687,6.636,27.559,3.85c8.191-1.437,13.047-3.529,17.33-5.374c4.621-1.99,8.613-3.71,15.284-3.859 c12.425-0.275,20.234-2.386,20.312-2.407c0.062-0.015,0.114,0.016,0.172,0.022c0.244-2.617,1.21-17.564-7.032-30.367l-0.286,0.172 l-7.816,4.698c0.113,0.196,0.103,0.442-0.073,0.597c-0.631,0.555-15.511,13.572-20.78,15.835 c-4.019,1.726-17.232,5.851-27.727,5.851c-1.697,0-3.321-0.108-4.825-0.351c-9.581-1.547-12.335-3.81-12.766-4.219 c-2.584,3.287-2.239,7.801-1.393,11.184C31.593,498.436,31.853,498.586,31.922,498.841z" fill="#ed585a"/></g><g id="change3_1"><path d="M106.716,464.907l-7.816,4.698c0.113,0.196,0.103,0.442-0.073,0.597c-0.631,0.555-15.511,13.572-20.78,15.835 c-4.019,1.726-17.232,5.851-27.727,5.851c-1.697,0-3.321-0.108-4.825-0.351c-9.581-1.547-12.335-3.81-12.766-4.219 c-0.034-0.032-0.058-0.057-0.066-0.064c-0.18-0.198-0.166-0.504,0.031-0.683c0.19-0.172,0.474-0.155,0.655,0.018 c0.008,0.007,0.02,0.005,0.027,0.012c0.019,0.021,2.375,2.384,12.273,3.982c10.004,1.615,26.732-3.165,32.016-5.433 c5.13-2.205,20.371-15.539,20.524-15.673c0.003-0.003,0.008-0.001,0.012-0.004c-1.841-2.162-11.534-13-17.25-8.712l-7.44-37.097 c8.349,1.622,19.09,3.038,32.57,3.703C106.303,438.283,106.546,453.582,106.716,464.907z M201.802,465.717l-17.608-43.256 c11.201-2.258,20.188-5.026,27.339-7.87l17.271,50.354c-1.929-1.185-4.865-2.357-8.542-1.838c-5.818,0.822-9.992,5.379-11.074,6.676 c0.071,0.058,0.145,0.116,0.174,0.21c0.053,0.164,5.202,16.633,7.291,22.307c1.998,5.425,4.725,10.344,16.007,10.91 c11.063,0.564,27.295-3.635,27.888-3.789c0.008-0.002,0.044-0.011,0.046-0.012c0.266-0.062,0.522,0.089,0.59,0.345 c0.068,0.257-0.087,0.521-0.345,0.59c-0.001,0-0.023,0.006-0.027,0.007c-0.402,0.104-14.919,3.875-26.042,3.875 c-0.738,0-1.458-0.017-2.16-0.051c-11.87-0.598-14.751-5.8-16.863-11.544c-2.098-5.695-7.255-22.187-7.306-22.353 c-0.045-0.14-0.012-0.276,0.061-0.391L201.802,465.717z M190.137,426.364c-0.048-0.303-0.183-0.454-0.415-0.393 c-0.089,0.023-0.186,0.194-0.196,0.305c-0.018,0.212,0.093,0.413,0.32,0.42C190.086,426.703,190.14,426.498,190.137,426.364z M262.295,510.944c-0.028,0.002-0.051-0.018-0.079-0.01c-0.206,0.057-20.662,5.582-32.627,4.62c-8.651-0.702-16.294-5.059-22.1-12.6 c-3.201-4.157-7.291-5.084-7.464-5.121c-0.086-0.018-0.165,0.019-0.244,0.046c-0.156,0.052-0.292,0.151-0.329,0.322 c-0.031,0.142,0.013,0.275,0.093,0.384c0.067,0.09,0.157,0.166,0.275,0.192c0.04,0.009,3.929,0.902,6.904,4.767 c5.978,7.764,13.857,12.25,22.786,12.974c0.987,0.081,2.026,0.117,3.107,0.117c12.242,0,29.664-4.716,29.852-4.767 c0.093-0.025,0.151-0.096,0.211-0.163c0.106-0.118,0.173-0.265,0.129-0.43C262.746,511.044,262.525,510.923,262.295,510.944z M114.034,495.102c-0.059-0.007-0.111-0.038-0.172-0.022c-0.077,0.021-7.887,2.132-20.312,2.407 c-6.671,0.149-10.662,1.869-15.284,3.859c-4.284,1.845-9.139,3.937-17.33,5.374c-15.871,2.786-26.37-3.137-27.559-3.85 c-0.205-0.434-0.904-1.992-1.455-4.029c-0.068-0.255-0.329-0.405-0.587-0.339c-0.002,0-0.004-0.001-0.006-0.001 c-0.257,0.07-0.409,0.334-0.34,0.592c0.012,0.046,0.026,0.088,0.039,0.134c0.669,2.424,1.506,4.123,1.542,4.195 c0.039,0.077,0.097,0.143,0.17,0.191c0.091,0.058,7.606,4.81,19.841,4.81c2.631,0,5.481-0.219,8.52-0.753 c8.303-1.456,13.214-3.571,17.546-5.438c4.529-1.95,8.44-3.635,14.922-3.78c12.556-0.279,20.469-2.42,20.547-2.441 c0.14-0.039,0.238-0.14,0.296-0.263c0.048-0.101,0.074-0.216,0.042-0.332C114.401,495.22,114.227,495.123,114.034,495.102z M159.756,106.031c0.501-0.608,0.415-1.508-0.194-2.009c-0.608-0.502-1.508-0.415-2.009,0.194c-0.501,0.608-0.415,1.508,0.194,2.009 C158.355,106.726,159.255,106.64,159.756,106.031z M145.753,104.059c0.501-0.608,0.415-1.508-0.194-2.009 c-0.608-0.501-1.508-0.415-2.009,0.194s-0.415,1.508,0.194,2.009C144.352,104.754,145.251,104.667,145.753,104.059z M166.298,101.869c0.108,0,0.215-0.036,0.306-0.109c0.206-0.168,0.238-0.472,0.068-0.678c-0.049-0.063-5.123-6.168-11.29-2.629 c-0.231,0.133-0.311,0.428-0.178,0.659s0.428,0.309,0.659,0.178c5.441-3.127,9.876,2.174,10.062,2.401 C166.019,101.809,166.159,101.869,166.298,101.869z M149.141,109.389c0.218,0,0.415-0.147,0.469-0.368l0.759-3.094 c0.064-0.259-0.094-0.521-0.354-0.584c-0.259-0.063-0.521,0.095-0.584,0.354l-0.759,3.094c-0.064,0.259,0.094,0.521,0.354,0.584 C149.064,109.384,149.103,109.389,149.141,109.389z M148.638,115.313c0.436,0.091,0.853,0.13,1.251,0.13 c2.865,0,4.702-2.063,4.788-2.163c0.174-0.2,0.154-0.505-0.046-0.68c-0.201-0.175-0.504-0.155-0.681,0.045 c-0.086,0.095-2.11,2.337-5.116,1.722c-2.631-0.545-4.085-3.299-4.099-3.327c-0.121-0.236-0.412-0.325-0.651-0.207 c-0.237,0.123-0.329,0.413-0.207,0.65C143.943,111.613,145.548,114.674,148.638,115.313z M165.497,126.31 c-5.908,2.946-12.934,3.123-19.036,0.333h0l-1.592,4.164l-0.218,0.57C159.133,132.917,165.497,126.31,165.497,126.31z M46.413,46.622c-10.732,4.204-20.631,10.209-26.768,16.8c-0.622,0.669-1.22,1.388-1.805,2.131 c-0.139,0.176-0.276,0.353-0.413,0.532c-0.578,0.761-1.144,1.545-1.686,2.375c-0.002,0.004-0.005,0.008-0.007,0.011 c-0.547,0.838-1.071,1.721-1.583,2.627c-0.102,0.18-0.203,0.36-0.304,0.543c-0.512,0.931-1.011,1.886-1.488,2.881L36.935,70.4 C39.841,62.482,43.137,54.318,46.413,46.622z M43.114,69.363l21.147-3.548c2.434-9.694,4.935-19.236,6.48-25.074 c8.212-0.639,15.55,0.448,20.576,3.862l76.036-14.439l90.227,50.179l-54.435,10.337l-2.71,0.515l-15.482,2.94 c0.849,3.419,0.679,7.101-0.541,10.984c-2.478-1.138-6.495-0.692-9.762,0.006l0-0.001l-7.118-14.047c0,0-17.509,8.467-31.508,11.226 c-0.1-0.153-0.186-0.312-0.146-0.531c0.053-0.287-0.003-0.706-0.312-0.668c-0.609,0.074-0.12,0.48-0.149,0.748 c-0.024,0.221,0.018,0.394,0.084,0.551c-0.54,0.101-1.073,0.194-1.601,0.277c-1.621,0.255-3.18,0.423-4.634,0.47 c0,0-7.698-14.152,6.743-23.686c6.295-0.881,15.802-0.114,25.818,2.911c9.979,3.014,18.304,7.329,23.068,11.533 c0.018,0.016,0.04,0.031,0.058,0.047l5.758-19.064c-3.342-2.965-8.487-5.979-14.713-8.564c0.253-0.451,0.008-0.944,0.019-1.635 c-0.341,0.568-0.555,0.953-0.792,1.309c-2.407-0.971-4.957-1.88-7.639-2.69c-10.016-3.025-19.374-4.039-25.669-3.157l-4.972,16.25 l-9.345-5.197c-0.079-0.166-0.152-0.342-0.271-0.501c-0.064-0.086-0.264-0.121-0.39-0.101c-0.093,0.014-0.147,0.069-0.198,0.124 L97.846,54.659c0.166,0.877,0.282,1.795,0.335,2.764c0.048,0.882,0.066,1.781,0.064,2.69L43.114,69.363z M135.621,89.667 c-0.199-0.042-0.424,0.069-0.485,0.311c-0.098,0.388,0.047,0.679,0.4,0.875c0.305,0.065,0.296-0.215,0.349-0.37 C135.994,90.162,136.132,89.774,135.621,89.667z M137.446,92.555c0.076-0.205-0.134-0.337-0.322-0.422 c-0.142-0.078-0.252-0.038-0.312,0.127c-0.074,0.204-0.037,0.433,0.164,0.482C137.117,92.777,137.404,92.667,137.446,92.555z M145.728,96.682c-0.062-0.381-0.265-0.556-0.565-0.455c-0.143,0.048-0.315,0.289-0.312,0.438c0.007,0.314,0.282,0.484,0.562,0.433 C145.55,97.073,145.641,96.805,145.728,96.682z M146.444,94.887c-0.061-0.171-0.177-0.229-0.344-0.158 c-0.062,0.026-0.113,0.078-0.169,0.118c0.078,0.079,0.154,0.216,0.236,0.22C146.256,95.072,146.352,94.953,146.444,94.887z M177.232,95.084c-0.044-0.169-0.147-0.212-0.302-0.12c-0.054,0.032-0.12,0.071-0.143,0.123c-0.054,0.126,0.022,0.203,0.199,0.215 C177.151,95.312,177.233,95.238,177.232,95.084z M180.024,95.194c-0.119-0.039-0.241-0.114-0.355-0.104 c-0.093,0.008-0.178,0.118-0.266,0.183c0.116,0.05,0.236,0.148,0.345,0.137C179.847,95.4,179.933,95.271,180.024,95.194z M189.945,86.042c0.002-0.429-0.113-0.582-0.363-0.541c-0.216,0.035-0.356,0.194-0.364,0.418c-0.009,0.263,0.184,0.364,0.402,0.352 C189.849,86.257,189.943,86.077,189.945,86.042z M192.423,76.436c-0.002,0.223,0.131,0.394,0.377,0.352 c0.09-0.016,0.221-0.162,0.222-0.25c0.004-0.227-0.137-0.365-0.383-0.364C192.564,76.26,192.424,76.347,192.423,76.436z M187.112,66.373c0.041,0.105,0.113,0.197,0.173,0.295c0.084-0.084,0.167-0.168,0.251-0.253c-0.101-0.061-0.197-0.131-0.305-0.174 C187.21,66.231,187.102,66.345,187.112,66.373z M156.726,53.113c0.003-0.108-0.065-0.268-0.151-0.319 c-0.229-0.135-0.547,0.101-0.508,0.381c0.014,0.099,0.147,0.181,0.226,0.271C156.471,53.472,156.72,53.304,156.726,53.113z M165.794,61.867c-0.026,0.081,0.084,0.205,0.132,0.309c0.116-0.038,0.268-0.045,0.336-0.124c0.049-0.058,0.026-0.261-0.036-0.311 C166.051,61.599,165.862,61.653,165.794,61.867z M157.943,55.216c-0.099,0.082-0.259,0.148-0.291,0.253 c-0.072,0.237,0.055,0.426,0.299,0.462c0.217,0.032,0.423-0.058,0.401-0.321C158.333,55.391,158.181,55.245,157.943,55.216z M155.45,45.463c0.027,0.681,0.467,0.188,0.701,0.145c0.469-0.087,0.936-0.22,1.38-0.394c0.162-0.064,0.258-0.299,0.423-0.505 c-0.809-0.591-0.486-1.492-0.695-2.248c-0.056-0.202-0.161-0.408-0.4-0.367c-0.352,0.061-0.429,0.381-0.364,0.648 c0.114,0.467,0.36,0.902,0.465,1.369c0.138,0.615-0.19,1.037-0.848,1.045C155.793,45.161,155.438,45.18,155.45,45.463z M148.626,55.308c0.069,0.111,0.165,0.265,0.269,0.284c0.497,0.086,1.178-0.045,2.079-0.345c-0.029-0.043-0.057-0.124-0.086-0.124 c-0.683-0.004-1.365,0.003-2.048,0.003C148.642,55.125,148.553,55.19,148.626,55.308z M147.634,40.247 c0.1,0.045,0.243-0.005,0.368-0.013c-0.062-0.097-0.115-0.203-0.192-0.286c-0.028-0.031-0.135-0.032-0.171-0.004 C147.513,40.042,147.503,40.188,147.634,40.247z M146.981,41.961c0.025,0.284,0.479,0.838,0.6,0.732 c0.135-0.117,0.218-0.342,0.243-0.53c0.038-0.293-0.065-0.549-0.423-0.554C147.182,41.605,147.022,41.718,146.981,41.961z M146.821,49.696c-0.009,0.126,0.023,0.29,0.102,0.375c0.047,0.051,0.235,0.013,0.337-0.035c0.34-0.158,0.526-0.427,0.507-0.826 c-0.048-0.097-0.09-0.214-0.162-0.309c-0.019-0.025-0.131,0.01-0.195,0.032C147.049,49.059,146.848,49.32,146.821,49.696z M146.691,58.616c0.007,0.085,0.196,0.215,0.301,0.214c0.095,0,0.251-0.135,0.275-0.235c0.128-0.547,0.235-1.1,0.315-1.656 c0.009-0.064-0.195-0.159-0.3-0.24c-0.335-0.026-0.591,0.183-0.622,0.448C146.602,57.631,146.65,58.128,146.691,58.616z M138.804,64.994c0.153,0.038,0.251-0.019,0.296-0.17C138.839,64.598,138.845,64.836,138.804,64.994z M138.262,64.1 c-0.428,0.653-0.99,1.161-1.636,1.596c-0.102,0.068-0.112,0.392-0.051,0.555c0.085,0.226,0.373,0.254,0.533,0.136 c0.547-0.405,1.061-0.853,1.588-1.286C138.144,64.944,138.391,64.44,138.262,64.1z M136.651,57.188 c-0.087,0.632,0.275,1.251,0.591,1.096c0.445-0.217,0.4-0.667,0.472-1.18c-0.049-0.228-0.115-0.565-0.2-0.898 c-0.011-0.042-0.122-0.089-0.181-0.083c-0.127,0.013-0.33,0.023-0.363,0.097C136.832,56.531,136.696,56.856,136.651,57.188z M136.444,62.915c-0.004,0.237,0.183,0.359,0.398,0.321c0.083-0.014,0.136-0.199,0.202-0.306c-0.061-0.189-0.11-0.421-0.382-0.316 C136.561,62.654,136.445,62.81,136.444,62.915z M127.483,61.154c0.024,0.01,0.123-0.076,0.137-0.131 c0.07-0.261,0.096-0.521-0.145-0.731c-0.078,0.077-0.197,0.142-0.228,0.235C127.162,60.787,127.198,61.029,127.483,61.154z M126.281,64.884c0.089,0.137,0.224,0.103,0.311-0.038c-0.031-0.118-0.063-0.237-0.095-0.355c-0.062,0.017-0.168,0.021-0.179,0.054 C126.283,64.654,126.232,64.808,126.281,64.884z M179.923,153.28c0.019-0.054,0.054-0.099,0.045-0.169 c-0.03-0.22-0.161-0.381-0.395-0.381c-0.341,0-0.685,0.012-1.022,0.061c-0.095,0.014-0.212,0.165-0.242,0.275 c-0.068,0.249,0.131,0.369,0.315,0.457c0.12,0.057,0.266,0.06,0.461,0.099c0.145-0.015,0.357-0.008,0.551-0.064 c0.037-0.011,0.06-0.04,0.093-0.056c-2.642,3.056-5.449,5.935-8.31,8.617c-0.079-0.097-0.16-0.191-0.238-0.284 c-0.387-0.462-0.865,0.139-1.33,0.039c-0.417-0.09-0.811,0.091-1.108,0.289c0.397,0.17,0.764,0.54,1.327,0.375 c0.324-0.095,0.614-0.068,0.885,0.019c-4.701,4.363-9.514,8.185-13.924,11.392c-9.803,7.128-17.596,11.188-17.596,11.188 c-3.391-5.31-6.021-11.142-8.084-17.007c-4.004-11.388-5.828-22.899-6.646-30.954c2.035,0.187,4.098,0.387,6.178,0.598 c0.127,0.013,0.253,0.026,0.38,0.039c2.094,0.214,4.205,0.44,6.331,0.681c0.292,8.227,1.492,20.161,5.63,29.101 c0,0,15.327-10.561,26.919-24.251c0.079,0.015,0.155,0.033,0.234,0.048c-0.215,0.873,0.357,1.634,1.436,1.698 c0.07,0.01,0.139,0.025,0.209,0.028c0.288,0.013,0.623-0.006,0.715-0.298c0.135-0.431-0.278-0.348-0.512-0.422 c-0.697-0.218-0.857-0.28-0.84-0.799c2.145,0.422,4.283,0.851,6.375,1.312c0.002,0,0.003,0.001,0.005,0.001 c2.5,0.55,4.957,1.129,7.359,1.738C183.5,148.942,181.751,151.152,179.923,153.28z M133.67,141.321 c0.023,0.351,0.165,0.654,0.543,0.735c0.083,0.018,0.2-0.124,0.307-0.196c0.04-0.417-0.222-0.607-0.569-0.697 C133.871,141.143,133.667,141.271,133.67,141.321z M134.683,143.495c-0.004-0.336-0.268-0.451-0.552-0.409 c-0.333,0.05-0.39,0.326-0.347,0.609c0.034,0.223,0.19,0.342,0.365,0.346C134.539,144.013,134.687,143.787,134.683,143.495z M136.216,141.862c-0.025-0.163-0.131-0.253-0.28-0.186c-0.106,0.048-0.22,0.161-0.251,0.267c-0.02,0.072,0.09,0.256,0.157,0.264 C136.069,142.234,136.184,142.08,136.216,141.862z M156.741,171.535c0.05-0.264-0.102-0.395-0.318-0.449 c-0.254-0.064-0.384,0.108-0.455,0.317c-0.094,0.279,0.112,0.372,0.316,0.425C156.529,171.891,156.666,171.745,156.741,171.535z M161.87,169.402c-0.027-0.278-0.115-0.532-0.463-0.499c-0.089,0.009-0.221,0.18-0.23,0.285c-0.022,0.274,0.062,0.551,0.375,0.601 C161.791,169.828,161.86,169.62,161.87,169.402z M162.571,154.802c0.048-0.592-0.398-1.126-0.203-1.735 c-0.881,0.122-0.91,0.142-0.511,0.706c0.228,0.322,0.283,0.609,0.174,0.974c-0.077,0.258-0.111,0.535-0.117,0.804 c-0.001,0.054,0.208,0.128,0.329,0.161c0.045,0.012,0.156-0.054,0.167-0.101C162.474,155.345,162.519,155.072,162.571,154.802z M181.44,149.713c0.205,0.075,0.386,0.037,0.511-0.163c-0.048-0.121-0.063-0.297-0.154-0.355c-0.196-0.125-0.375-0.033-0.483,0.172 C181.231,149.525,181.272,149.652,181.44,149.713z M296.907,225.401c-0.721-1.289-1.519-2.568-2.306-3.848l-11.004,19.222 c7.074,6.547,13.636,12.852,18.75,18.329C303.332,246.357,301.722,234.01,296.907,225.401z M179.84,114.286 c-2.786,0.987-5.748,1.617-7.524,1.938l-1.082,5.145l-0.818,3.886c3.718-3.551,6.721-7.052,9.074-10.468 c0.005-0.023-0.011-0.039-0.001-0.063c0.036-0.086,0.099-0.137,0.166-0.174C179.716,114.462,179.782,114.374,179.84,114.286z M65.942,16.477c2.15-1.008,8.216-3.164,10.428-1.077c1.353,1.276,1.667,4.22,0.747,6.998c-0.827,2.497-2.427,4.117-4.279,4.333 c-2.032,0.243-3.024-1.928-3.28-2.597c-0.677-1.773-0.516-3.65,0.369-4.274c0.409-0.29,0.773-0.373,1.109-0.246 c0.937,0.341,1.586,2.097,1.757,2.745c0.068,0.258,0.336,0.406,0.589,0.344c0.257-0.068,0.412-0.331,0.344-0.589 c-0.075-0.288-0.783-2.831-2.359-3.407c-0.446-0.162-1.153-0.231-1.998,0.365c-1.438,1.014-1.448,3.488-0.714,5.408 c0.775,2.03,2.244,3.235,3.893,3.235c0.133,0,0.266-0.008,0.4-0.023c1.875-0.219,3.508-1.578,4.547-3.697 c0.082,0.012,0.139,0.035,0.24,0.035c0.537,0,1.34-0.209,2.377-1.07c0.136-0.112,0.282-0.242,0.434-0.391 c0.02,0.867,0.189,1.645,0.605,2.223c0.041,0.057,0.113,0.054,0.17,0.087c0.074,0.043,0.137,0.113,0.221,0.113 c0.098,0,0.197-0.029,0.283-0.091c0.048-0.035,0.055-0.093,0.086-0.14c0.109-0.163,0.144-0.366,0.022-0.535 c-0.853-1.182-0.448-4.089,1.007-7.232c1.319-2.846,3.021-4.346,5.062-4.458c0.224-0.012,0.375-0.188,0.417-0.399 c0.008-0.039,0.041-0.068,0.038-0.11c-0.012-0.234-0.201-0.394-0.425-0.426c-0.03-0.004-0.052-0.031-0.083-0.029 c-0.658,0.036-1.28,0.197-1.872,0.461c0.112-2.038-0.019-6.917-3.691-8.071c-5.912-1.863-12.987,2.309-13.285,2.488 c-0.228,0.137-0.303,0.433-0.166,0.662c0.135,0.228,0.427,0.304,0.662,0.167c0.068-0.042,7.006-4.12,12.499-2.397 c3.474,1.093,3.068,6.738,2.966,7.749c-0.658,0.476-1.271,1.099-1.829,1.897c-0.061-1.51-0.482-3.152-1.908-4.399 c-4.452-3.897-14.095,0.486-14.502,0.674c-0.242,0.111-0.348,0.399-0.237,0.64c0.11,0.242,0.401,0.349,0.64,0.237 c0.095-0.044,9.479-4.31,13.462-0.825c1.319,1.155,1.795,2.9,1.503,5.481c-0.042,0.087-0.088,0.163-0.129,0.252 c-0.603,1.303-1.114,2.785-1.366,4.181c-0.505,0.867-0.844,1.151-1.21,1.455c-0.732,0.609-1.258,0.787-1.591,0.828 c0.044-0.118,0.095-0.227,0.135-0.348c1.05-3.167,0.638-6.46-1.002-8.005c-3.144-2.96-11.16,0.746-11.5,0.905 c-0.241,0.114-0.346,0.401-0.233,0.642C65.414,16.486,65.703,16.586,65.942,16.477z M292.133,293.119 c0.248,0.267,0.497,0.521,0.746,0.763c-6.381,12.267-15.579,20.688-26.645,19.87c-0.95-0.07-1.871-0.193-2.767-0.359 c-0.238-0.044-0.461-0.115-0.696-0.166c-0.654-0.142-1.305-0.288-1.931-0.48c-0.226-0.069-0.439-0.161-0.661-0.236 c-0.62-0.211-1.237-0.427-1.831-0.686c-0.186-0.081-0.362-0.178-0.545-0.264c-0.618-0.288-1.229-0.587-1.819-0.926 c-0.14-0.08-0.273-0.171-0.412-0.254c-0.623-0.373-1.236-0.763-1.83-1.19c-0.095-0.069-0.187-0.143-0.282-0.214 c-0.629-0.465-1.245-0.952-1.843-1.474c-0.055-0.048-0.108-0.099-0.163-0.147c-0.632-0.56-1.25-1.147-1.851-1.767 c-0.021-0.022-0.041-0.044-0.062-0.066c-0.629-0.653-1.241-1.335-1.838-2.049l23.478-41.013l8.983,10.206l0,0 c0,0.004,0.828,14.819,6.586,18.135c1.541,0.887,2.971,1.425,4.259,1.761c-1.02-1.217-3.725-4.607-6.007-8.973 c-0.123-0.238-0.032-0.528,0.204-0.653c0.236-0.126,0.528-0.032,0.653,0.204c2.792,5.346,6.276,9.254,6.312,9.294 c0.103,0.114,0.122,0.26,0.097,0.401C292.25,292.94,292.217,293.043,292.133,293.119z M278.405,274.691 c0.011-0.098-0.1-0.276-0.192-0.305c-0.337-0.104-0.689-0.161-0.934-0.214c-0.173-0.019-0.243-0.035-0.313-0.033 c-0.247,0.007-0.408,0.14-0.412,0.381c-0.003,0.229,0.153,0.391,0.377,0.416c0.414,0.048,0.833,0.082,1.249,0.076 C278.262,275.011,278.392,274.81,278.405,274.691z M299.525,287.372c-0.192,0.187-0.196,0.492-0.011,0.683 c2.541,2.613,3.439,5.597,2.812,6.862c-0.05,0.102-0.043,0.212-0.02,0.315c0.031,0.138,0.104,0.264,0.241,0.332 c0.068,0.034,0.141,0.049,0.213,0.049c0.177,0,0.349-0.098,0.434-0.27c0.117-0.237,0.195-0.502,0.242-0.786 c0.316-1.93-0.949-4.83-3.228-7.174C300.022,287.193,299.716,287.187,299.525,287.372z M305.075,282.051 c-0.192,0.187-0.196,0.492-0.011,0.685c2.543,2.611,3.439,5.595,2.814,6.859c-0.119,0.24-0.021,0.53,0.217,0.647 c0.006,0.003,0.013,0.002,0.019,0.005c0.064,0.029,0.131,0.046,0.196,0.046c0.177,0,0.349-0.098,0.432-0.268 c0.143-0.289,0.214-0.627,0.253-0.984c0.21-1.928-1.03-4.709-3.237-6.98C305.569,281.874,305.264,281.866,305.075,282.051z M312.136,282.585c-0.24-1.814-1.353-3.98-3.654-5.599c-0.215-0.157-0.521-0.102-0.672,0.117c-0.155,0.217-0.102,0.519,0.117,0.672 c2.69,1.894,3.563,4.563,3.235,6.242c-0.043,0.222,0.092,0.413,0.288,0.504c0.035,0.016,0.054,0.054,0.093,0.062 c0.03,0.006,0.062,0.009,0.092,0.009c0.226,0,0.428-0.16,0.473-0.39C312.203,283.72,312.213,283.17,312.136,282.585z" fill="#1c080a"/></g><g id="change4_1"><path d="M208.662,154.405v-30.854c0-3.331-2.371-6.105-5.516-6.735V90.679l-2.71,0.515v25.622 c-3.146,0.63-5.516,3.404-5.516,6.735v25.858c-3.132-0.981-6.42-1.892-9.804-2.75c-1.621,2.289-3.367,4.496-5.194,6.621 c-0.035,0.099-0.098,0.174-0.194,0.221c-2.642,3.056-5.449,5.935-8.31,8.617c0.25,0.308,0.468,0.649,0.472,1.085 c0.01,0.011,0.021,0.019,0.031,0.03c0.004,0.01,0.001,0.018,0.004,0.027c0.121,0.017,0.243,0.03,0.363,0.054 c0.413,0.085,0.597,0.372,0.368,0.595c-0.186,0.18-0.433,0.296-0.649,0.446c-0.135,0.094-0.282,0.1-0.352-0.047 c-0.044-0.093-0.004-0.244,0.039-0.354c0.09-0.229,0.328-0.407,0.232-0.695c-0.009-0.001-0.019-0.003-0.028-0.004 c0.001-0.019-0.007-0.035-0.007-0.053c-0.274-0.307-0.586-0.535-0.935-0.647c-4.701,4.363-9.514,8.185-13.924,11.392 c-9.803,7.128-17.596,11.188-17.596,11.188c-3.391-5.31-6.021-11.142-8.084-17.007c-4.004-11.387-5.828-22.897-6.646-30.952 c-29.014-2.662-52.776-2.875-52.776-2.875s27.888-46.882,26.252-76.878c0.048,0.882,0.066,1.781,0.064,2.69l-55.131,9.25 L36.935,70.4l-24.539,4.117C3.443,93.165,0.495,122.854,0.012,151.354c-0.903,53.307,49.347,47.97,91.053,42.43 c-5.289,16.056-12.02,38.797-19.608,69.726C54.222,333.763,48.935,415.98,48.935,415.98s7.056,4.28,24.576,7.684 c8.349,1.622,19.09,3.038,32.57,3.703c10.975,0.542,23.747,0.589,38.571-0.176c15.542-0.801,28.587-2.522,39.542-4.73 c11.201-2.258,20.188-5.026,27.339-7.87c19.184-7.63,25.175-15.759,25.175-15.759s-34.745-64.689-48.851-109.396 c-0.171-0.018-0.342-0.048-0.512-0.092c-0.105-0.027-0.176-0.182-0.263-0.278c0.15-0.133,0.284-0.352,0.453-0.384 c0.028-0.005,0.054,0.001,0.082-0.003c-1.021-3.274-1.926-6.434-2.698-9.452c-0.091-0.076-0.18-0.156-0.264-0.242 c0.076-0.015,0.138-0.008,0.201-0.001c-1.386-5.458-2.326-10.438-2.685-14.737c-0.114-1.362-0.197-2.732-0.265-4.106 c-0.052-0.02-0.112-0.019-0.162-0.047c-0.053-0.029-0.072-0.264-0.023-0.307c0.045-0.039,0.114-0.061,0.167-0.096 c-0.142-3.133-0.173-6.287-0.102-9.439c-0.109-0.008-0.22,0.006-0.319-0.029c-0.079-0.029-0.15-0.236-0.131-0.346 c0.041-0.238,0.227-0.326,0.464-0.311c0.266-9.797,1.46-19.539,3.023-28.444c-0.019-0.065-0.027-0.13-0.008-0.166 c0.012-0.022,0.034-0.04,0.049-0.061c0.585-3.315,1.219-6.509,1.877-9.547c10.383,7.367,19.309,16.045,26.515,24.958 c15.278,18.894,20.809,50.77,34.472,67.125l25.255-44.115l10.614-18.541l11.004-19.222 C278.217,194.878,247.756,170.192,208.662,154.405z M20.076,105.454c-0.235-0.054-0.346-0.209-0.356-0.424 c-0.023-0.492,0.307-0.866,0.701-0.752c0.159,0.046,0.351,0.249,0.382,0.409C20.879,105.082,20.451,105.49,20.076,105.454z M26.86,185.46c-0.02,0.071-0.233,0.141-0.338,0.12c-0.106-0.021-0.275-0.166-0.267-0.24c0.04-0.387,0.047-0.809,0.485-1.018 C27.031,184.678,26.967,185.075,26.86,185.46z M27.756,165.066c-0.105,0.027-0.284-0.023-0.351-0.105 c-0.125-0.153-0.263-0.353-0.261-0.533c0.001-0.16,0.149-0.372,0.294-0.465c0.228-0.146,0.361,0.058,0.43,0.251 c0.068,0.188,0.098,0.389,0.143,0.573C27.918,164.895,27.852,165.041,27.756,165.066z M28.137,151.3 c-0.195,0.134-0.38,0.071-0.402-0.176c-0.008-0.089,0.125-0.245,0.222-0.273c0.088-0.025,0.214,0.081,0.324,0.13 C28.236,151.091,28.22,151.244,28.137,151.3z M28.115,144.24c-0.048-0.001-0.123-0.084-0.137-0.141 c-0.089-0.352,0.196-0.455,0.426-0.609c0.066,0.084,0.184,0.165,0.185,0.249C28.595,144.044,28.449,144.248,28.115,144.24z M28.34,142.545c-0.191-0.087-0.318-0.26-0.264-0.472c0.052-0.204,0.222-0.403,0.433-0.315c0.129,0.054,0.176,0.306,0.244,0.436 C28.656,142.422,28.632,142.678,28.34,142.545z M58.154,123.101c-0.307,0.033-0.514-0.108-0.52-0.443 c-0.005-0.288,0.077-0.527,0.415-0.574c0.291,0.035,0.506,0.177,0.547,0.479C58.639,122.88,58.458,123.068,58.154,123.101z M62.996,158.208c-0.472,0.006-0.97,0.194-1.408-0.135c-0.252-0.189-0.509-0.176-0.779-0.061c-0.041-0.077-0.037-0.152,0.012-0.225 c0.581,0.223,0.829-0.422,1.299-0.497c0.349-0.056,0.697-0.103,0.991,0.145c0.098,0.083,0.195,0.22,0.207,0.341 C63.338,157.989,63.235,158.205,62.996,158.208z M64.724,119.725c-0.216,0.081-0.401-0.018-0.412-0.258 c-0.005-0.111,0.098-0.31,0.18-0.326c0.207-0.041,0.391,0.055,0.431,0.315C64.865,119.538,64.817,119.69,64.724,119.725z M67.474,123.553c-0.344-0.017-0.394-0.316-0.429-0.571c-0.013-0.093,0.125-0.284,0.217-0.3c0.466-0.082,0.274,0.336,0.401,0.48 C67.583,123.336,67.523,123.555,67.474,123.553z M55.852,380.898c-0.37-0.035-0.607-0.289-0.783-0.584 c-0.044-0.073,0.009-0.273,0.084-0.334c0.233-0.189,0.503-0.16,0.759-0.024c0.255,0.136,0.416,0.337,0.394,0.642 C56.233,380.823,56.062,380.918,55.852,380.898z M78.038,344.703c0.054,0.089,0.122,0.174,0.156,0.27 c0.011,0.032-0.063,0.094-0.098,0.142c-0.089-0.07-0.178-0.14-0.27-0.213C77.897,344.835,77.968,344.769,78.038,344.703z M74.245,322.659c-0.12-0.002-0.323-0.068-0.342-0.143c-0.058-0.23,0.105-0.342,0.346-0.362c0.089,0.041,0.273,0.069,0.297,0.147 C74.619,322.532,74.464,322.663,74.245,322.659z M78.847,410.335c-0.34,0.288-1.058,0.113-1.276-0.311 c-0.029-0.056-0.034-0.187-0.008-0.199c0.17-0.085,0.356-0.215,0.529-0.204c0.482,0.031,0.768,0.244,0.818,0.522 C78.89,410.208,78.89,410.298,78.847,410.335z M79.599,401.065c-0.367-0.055-0.702-0.18-0.687-0.626 c0.008-0.259,0.251-0.295,0.456-0.28c0.374,0.027,0.674,0.162,0.702,0.544C79.994,401.005,79.833,401.1,79.599,401.065z M84.924,415.245c-0.105,0.045-0.322,0.034-0.371-0.034c-0.245-0.346-0.349-0.738-0.102-1.126c0.053-0.083,0.234-0.085,0.353-0.123 c0.287,0.106,0.445,0.326,0.47,0.612C85.301,414.856,85.207,415.124,84.924,415.245z M89.19,303.502 c-0.098,0.009-0.232-0.096-0.308-0.186c-0.107-0.126-0.057-0.246,0.095-0.311c0.101,0.067,0.219,0.118,0.298,0.205 C89.389,303.337,89.351,303.488,89.19,303.502z M90.631,266.791c-0.216-0.083-0.255-0.288-0.117-0.461 c0.051-0.064,0.263-0.08,0.334-0.027c0.075,0.056,0.068,0.22,0.097,0.337C90.839,266.695,90.706,266.819,90.631,266.791z M124.459,147.655c0.17-0.029,0.254,0.087,0.203,0.246c-0.017,0.051-0.111,0.121-0.152,0.111c-0.113-0.027-0.217-0.093-0.327-0.143 C124.275,147.793,124.358,147.673,124.459,147.655z M123.458,149.255c0.204-0.083,0.373-0.012,0.418,0.242 c-0.06,0.088-0.116,0.258-0.198,0.272c-0.183,0.031-0.406-0.011-0.435-0.245C123.232,149.441,123.361,149.294,123.458,149.255z M114.094,156.815c0.231,0.02,0.348,0.194,0.254,0.416c-0.041,0.097-0.189,0.148-0.288,0.22c-0.199-0.086-0.332-0.241-0.275-0.45 C113.808,156.913,113.992,156.807,114.094,156.815z M105.147,157.949c0.269,0.115,0.465,0.349,0.349,0.668 c-0.034,0.093-0.231,0.127-0.353,0.188c-0.331-0.068-0.475-0.304-0.448-0.606C104.715,157.957,104.954,157.867,105.147,157.949z M92.187,222.598c-0.133,0.067-0.24,0.019-0.292-0.154c-0.039-0.13-0.079-0.268-0.073-0.4c0.019-0.478,0.352-0.941,0.65-0.89 c0.098,0.017,0.229,0.152,0.252,0.254C92.835,221.907,92.587,222.428,92.187,222.598z M93.345,193.183 c-0.256,0.028-0.297-0.195-0.3-0.395c-0.004-0.297,0.079-0.534,0.556-0.516c0.097,0.014,0.272,0.077,0.228,0.348 C93.784,192.909,93.651,193.149,93.345,193.183z M94.569,407.614c-0.274,0.148-0.614-0.196-0.606-0.628 c0.002-0.117,0.083-0.277,0.179-0.338c0.218-0.139,0.598,0.257,0.631,0.643C94.706,407.402,94.666,407.562,94.569,407.614z M96.426,198.434c-0.189-0.057-0.358-0.249-0.231-0.418c0.086-0.115,0.35-0.137,0.532-0.129c0.189,0.008,0.376,0.1,0.376,0.356 C96.932,198.484,96.68,198.511,96.426,198.434z M98.903,299.694c-0.113-0.018-0.239-0.172-0.198-0.398 c0.051-0.286,0.193-0.561,0.524-0.56c0.233,0,0.321,0.233,0.305,0.442C99.511,299.476,99.405,299.732,98.903,299.694z M102.7,204.364c-0.35-0.002-0.425-0.297-0.401-0.573c0.021-0.232,0.229-0.35,0.447-0.31c0.22,0.04,0.296,0.235,0.287,0.453 C102.991,204.133,102.925,204.365,102.7,204.364z M103.33,195.111c-0.185-0.261-0.379-0.424-0.619-0.054 c0.082-1.833,0.194-2.147,0.565-1.85C104.018,193.802,103.162,194.477,103.33,195.111z M104.247,165.929 c-0.159,0.03-0.282-0.045-0.259-0.21c0.015-0.109,0.141-0.204,0.218-0.305c0.098,0.076,0.196,0.151,0.294,0.227 C104.415,165.738,104.331,165.833,104.247,165.929z M114.322,218.454c-0.286-0.096-0.482-0.277-0.402-0.604 c0.054-0.22,0.25-0.295,0.465-0.314c0.29,0.076,0.451,0.287,0.514,0.562C114.959,218.359,114.631,218.558,114.322,218.454z M115.006,208.737c0.004-0.245,0.218-0.315,0.427-0.355c0.098,0.071,0.251,0.124,0.284,0.219c0.084,0.237-0.073,0.383-0.29,0.418 C115.222,209.053,115.002,208.998,115.006,208.737z M116.096,218.503c-0.209-0.026-0.439-0.088-0.473-0.335 c-0.016-0.112,0.069-0.262,0.151-0.358c0.209-0.245,0.513-0.31,0.745-0.113c0.256,0.218,0.431,0.532,0.718,0.904 C116.781,218.564,116.437,218.546,116.096,218.503z M117.961,320.965c-0.069,0.086-0.235,0.095-0.355,0.138 c-0.206-0.123-0.241-0.314-0.169-0.515c0.077-0.217,0.248-0.302,0.442-0.151C118.052,320.572,118.105,320.786,117.961,320.965z M120.187,273.698c0.278,0.137,0.555,0.273,0.833,0.41c-0.005-0.009-0.005-0.015-0.011-0.024c0,0,0.046,0.042,0.046,0.042 c-0.012-0.006-0.024-0.012-0.035-0.017c0.161,0.269,0.039,0.424-0.239,0.468c-0.178,0.028-0.367-0.012-0.551-0.021 C120.215,274.269,120.201,273.983,120.187,273.698z M121.15,275.503c-0.324,0.031-0.524-0.147-0.491-0.312 c0.025-0.123,0.324-0.257,0.504-0.261c0.175-0.004,0.511,0.163,0.505,0.233C121.64,275.5,121.308,275.449,121.15,275.503z M121.75,262.5c-0.152,0.073-0.289-0.025-0.251-0.18c0.028-0.112,0.155-0.226,0.267-0.282c0.147-0.075,0.243,0.015,0.249,0.189 C121.929,262.321,121.858,262.448,121.75,262.5z M132.726,208.792c-0.037,0.084-0.222,0.103-0.344,0.155 c-0.471-0.188-0.539-0.592-0.477-1.013c0.032-0.217,0.275-0.311,0.465-0.191C132.755,207.987,132.922,208.35,132.726,208.792z M135.755,200.104c-0.078,0.3-0.359,0.375-0.641,0.34c-0.293-0.035-0.543-0.19-0.476-0.517c0.064-0.314,0.357-0.345,0.65-0.32 C135.525,199.687,135.852,199.731,135.755,200.104z M197.065,376.683c-0.226-0.025-0.332-0.207-0.257-0.419 c0.034-0.097,0.189-0.219,0.283-0.214c0.244,0.014,0.293,0.204,0.254,0.421C197.252,376.546,197.15,376.692,197.065,376.683z M203.221,376.285c0.302-0.08,0.793,0.233,0.796,0.462c-0.079,0.246-0.281,0.294-0.49,0.283c-0.281-0.015-0.554-0.093-0.54-0.446 C202.99,376.477,203.119,376.311,203.221,376.285z M196.255,347.012c0.39-0.113,0.796-0.169,1.107-0.226 c0.229,0.068,0.39,0.073,0.479,0.155c0.074,0.069,0.126,0.276,0.078,0.342c-0.355,0.483-1.181,0.625-1.629,0.255 C196.192,347.457,196.213,347.024,196.255,347.012z M192.098,308.153c0.091-0.331,0.373-0.377,0.656-0.274 c0.486,0.177,0.779,0.609,0.629,0.918c-0.047,0.097-0.204,0.141-0.311,0.21c-0.193-0.071-0.39-0.132-0.577-0.217 C192.226,308.668,192.01,308.475,192.098,308.153z M189.367,174.4c0.074-0.086,0.243-0.146,0.354-0.127 c0.085,0.014,0.147,0.17,0.219,0.262c-0.089,0.234-0.273,0.227-0.464,0.174C189.32,174.665,189.256,174.53,189.367,174.4z M186.34,162.689c0.139-0.021,0.282-0.017,0.564-0.031c0.35,0.066,0.838,0.143,1.315,0.263c0.077,0.019,0.158,0.236,0.142,0.348 c-0.016,0.113-0.148,0.297-0.232,0.298c-0.624,0.007-1.249-0.013-1.872-0.047c-0.264-0.014-0.333-0.232-0.332-0.454 C185.927,162.806,186.122,162.722,186.34,162.689z M183.042,172.062c0.259-0.072,0.555-0.031,0.834-0.011 c1.456,0.105,2.913,0.208,4.367,0.346c0.154,0.015,0.394,0.244,0.402,0.385c0.009,0.156-0.177,0.355-0.324,0.481 c-0.27,0.23-0.515,0.067-0.741-0.118c0.126-0.044,0.271-0.063,0.376-0.137c0.232-0.164,0.123,0.181,0.18-0.095 c0.024-0.118,0.055-0.262-0.119-0.26c-0.719,0.008-1.466-0.197-2.143,0.219c-0.546-0.31-1.075-0.205-1.617,0.033 c-0.398,0.175-0.829,0.177-1.244,0.069c-0.202-0.053-0.386-0.238-0.323-0.462C182.74,172.337,182.89,172.105,183.042,172.062z M180.624,163.765c0.365,0.335,0.637,0.734,0.708,1.228c0.041,0.283-0.07,0.559-0.379,0.65c-0.33,0.097-0.548-0.083-0.555-0.402 c-0.008-0.361-0.081-0.682-0.281-0.977C180.286,164.097,180.455,163.931,180.624,163.765z M181.385,170.15 c-0.085,0.16-0.243,0.281-0.361,0.404c-0.253-0.126-0.304-0.311-0.258-0.502c0.052-0.214,0.209-0.343,0.427-0.212 C181.291,169.899,181.416,170.093,181.385,170.15z M170.783,176.112c0.09-0.206,0.276-0.29,0.482-0.18 c0.204,0.109,0.251,0.317,0.176,0.524c-0.072,0.198-0.203,0.356-0.458,0.334C170.716,176.628,170.663,176.385,170.783,176.112z M169.09,171.988c0.038,0.035,0.022,0.127,0.031,0.193c-0.034,0.053-0.074,0.156-0.101,0.152c-0.393-0.048-0.787-0.1-1.174-0.183 c-0.052-0.011-0.125-0.265-0.086-0.303C167.999,171.613,168.78,171.704,169.09,171.988z M179.69,326.75 c-0.442-0.017-0.885-0.034-1.327-0.051C178.818,326.395,179.258,326.475,179.69,326.75z M178.081,182.369 c0.036-0.155,0.258-0.328,0.43-0.376c0.217-0.061,0.384,0.107,0.375,0.346c-0.009,0.236-0.182,0.343-0.402,0.377 C178.281,182.674,178.027,182.606,178.081,182.369z M175.186,259.606c0.311-0.048,0.621-0.114,0.933-0.139 c0.219-0.018,0.411,0.09,0.45,0.322c0.021,0.125-0.012,0.287-0.081,0.393c-0.133,0.203-0.364,0.218-0.54,0.091 C175.676,260.077,175.439,259.831,175.186,259.606z M175.657,315.756c0.06,0.218-0.063,0.392-0.296,0.393 c-0.223,0.001-0.375-0.157-0.372-0.379c0.002-0.099,0.129-0.195,0.198-0.291C175.403,315.475,175.599,315.546,175.657,315.756z M176.893,273.773c0.066,0.037,0.112,0.263,0.066,0.314c-0.07,0.079-0.243,0.135-0.34,0.104c-0.093-0.031-0.144-0.186-0.213-0.287 C176.529,273.71,176.717,273.674,176.893,273.773z M176.858,279.949c0.308-0.067,0.678-0.407,0.879,0.041 c0.159,0.354-0.216,0.638-0.435,0.888c-0.236,0.269-0.482,0.144-0.661-0.125c-0.151-0.227-0.3-0.455-0.506-0.767 C176.454,279.973,176.663,279.992,176.858,279.949z M174.016,182.411c-0.229-0.062-0.424-0.214-0.272-0.451 c0.154-0.24,0.423-0.398,0.728-0.238c0.092,0.048,0.129,0.203,0.192,0.309C174.538,182.313,174.355,182.503,174.016,182.411z M174.098,288.791c-0.035,0.251-0.229,0.335-0.46,0.349c-0.226-0.046-0.416-0.201-0.326-0.406c0.071-0.162,0.308-0.318,0.493-0.349 C174.051,288.344,174.128,288.578,174.098,288.791z M170.804,316.88c-0.877,0.668-1.445,0.881-2.094,0.755 c-0.101-0.019-0.226-0.168-0.246-0.274c-0.02-0.106,0.048-0.261,0.128-0.349C169.181,316.366,169.816,316.735,170.804,316.88z M169.269,181.478c0.001-0.266,0.077-0.529,0.413-0.515c0.079,0.003,0.2,0.172,0.218,0.279c0.047,0.273-0.012,0.527-0.296,0.657 C169.366,181.853,169.269,181.681,169.269,181.478z M165.217,339.234c0.054,0.116,0.065,0.294,0.014,0.406 c-0.078,0.17-0.22,0.315-0.351,0.454c-0.036,0.038-0.147,0.047-0.2,0.022c-0.212-0.101-0.267-0.301-0.253-0.513 c0.009-0.135,0.02-0.334,0.105-0.391c0.625-0.415,0.342-1.291,0.901-1.731c0.103-0.081,0.186-0.186,0.384-0.388 c-0.084,0.322-0.071,0.58-0.192,0.685C165.156,338.186,164.931,338.622,165.217,339.234z M164.902,333.024 c0.069-0.058,0.301-0.047,0.348,0.016c0.116,0.153,0.168,0.354,0.268,0.588c-0.113,0.232-0.213,0.481-0.357,0.701 c-0.031,0.048-0.271,0.039-0.327-0.023C164.508,333.938,164.538,333.331,164.902,333.024z M155.954,200.7 c0.202-0.014,0.403-0.047,0.606-0.053c0.055-0.002,0.112,0.067,0.168,0.103c-0.05,0.033-0.101,0.096-0.149,0.092 c-0.2-0.013-0.399-0.046-0.599-0.073C155.725,200.736,155.717,200.716,155.954,200.7z M155.265,288.326 c0.21-0.166,0.443-0.344,0.693-0.402c0.133-0.031,0.363,0.147,0.476,0.289c0.188,0.238-0.045,0.36-0.218,0.452 c-0.116,0.062-0.259,0.079-0.392,0.106c-0.134,0.028-0.27,0.043-0.405,0.064c-0.106-0.049-0.299-0.097-0.299-0.146 C155.12,288.566,155.173,288.399,155.265,288.326z M155.087,336.6c0.599-0.098,1.222-0.127,1.846-0.35 c-0.861,0.574-0.808,1.817-1.785,2.111C155.083,337.875,154.76,337.257,155.087,336.6z M154.422,350.271 c0.037-0.098,0.159-0.244,0.222-0.234c0.116,0.018,0.275,0.115,0.31,0.216c0.087,0.251,0.135,0.522,0.157,0.788 c0.018,0.214-0.101,0.395-0.329,0.41c-0.236,0.016-0.357-0.145-0.379-0.374c-0.013-0.135-0.017-0.27-0.025-0.406 C154.39,350.538,154.376,350.393,154.422,350.271z M146.131,322.775c0.219-0.042,0.309,0.197,0.312,0.382 c0.004,0.2-0.111,0.357-0.344,0.373c-0.213-0.041-0.388-0.184-0.339-0.382C145.799,322.996,145.984,322.803,146.131,322.775z M145.685,327.403c0.051,0.112,0.102,0.223,0.153,0.335c-0.05,0.118-0.114,0.342-0.147,0.337c-0.233-0.031-0.228-0.245-0.209-0.41 C145.492,327.571,145.613,327.49,145.685,327.403z M142.791,316.272c-0.163,0.058-0.265-0.012-0.299-0.196 c0.081-0.073,0.163-0.208,0.258-0.218c0.161-0.018,0.235,0.113,0.179,0.271C142.91,316.187,142.849,316.252,142.791,316.272z M143.23,325.281c0.008-0.024,0.119-0.034,0.174-0.02c0.168,0.044,0.2,0.149,0.104,0.294c-0.108,0.014-0.217,0.027-0.325,0.04 C143.196,325.489,143.198,325.38,143.23,325.281z M143.608,354.802c-0.1-0.006-0.213-0.139-0.282-0.239 c-0.094-0.137-0.022-0.243,0.113-0.346c0.441-0.337,1.132,0.07,1.485-0.51c0,0,0.014,0.058,0.013,0.051 C144.697,354.36,144.352,354.845,143.608,354.802z M148.541,345.513c-0.654,0.287-1.413,0.3-2.063,0.068 c-0.789-0.281-1.504-0.226-2.264-0.001c-0.185,0.055-0.468-0.01-0.435-0.295c0.021-0.179,0.148-0.412,0.298-0.496 c0.422-0.235,0.989-0.068,1.37-0.459c0.063,0.331,0.007,0.733,0.481,0.823c0.839,0.161,1.679,0.326,2.465-0.192 C148.77,345.064,148.849,345.378,148.541,345.513z M152.102,279.156c-0.223-0.061-0.343-0.237-0.327-0.464 c0.026-0.371,0.408-0.623,0.765-0.49c0.104,0.039,0.16,0.205,0.238,0.313C152.739,278.849,152.355,279.225,152.102,279.156z M152.881,270.301c-0.141,0.14-0.326,0.327-0.496,0.331c-0.466,0.01-0.97,0.132-1.592-0.42c0.764-0.182,1.351-0.332,1.944-0.453 c0.081-0.017,0.262,0.105,0.273,0.18C153.026,270.054,152.966,270.217,152.881,270.301z M151.889,268.669 c-0.294,0.338-0.644,0.04-0.899-0.202c-0.089-0.084-0.172-0.265-0.139-0.363c0.034-0.104,0.199-0.194,0.324-0.231 c0.343-0.102,0.732-0.158,1.012,0.079c0.388,0.329,0.826,0.063,1.232,0.203C152.932,268.406,152.321,268.173,151.889,268.669z M154.461,365.253c-0.063-0.079-0.357-0.485,0-0.353c0.66,0.244,1.04-0.387,1.587-0.299c0.111,0.018,0.263,0.139,0.287,0.239 c0.023,0.094-0.074,0.295-0.159,0.324c-0.328,0.108-0.683,0.134-1.008,0.25c-0.299,0.107-0.372,0.381-0.323,0.683 c-0.147-0.045-0.294-0.089-0.441-0.134C154.654,365.745,154.677,365.526,154.461,365.253z M155.465,375.586 c-0.269,0.037-0.659,0.56-0.805-0.077c-0.091-0.397,0.326-0.566,0.605-0.777c0.746-0.563,1.258,0.193,1.838,0.545 C156.557,375.384,156.014,375.511,155.465,375.586z M157.394,277.946c0.177-0.43,0.314-0.92,0.622-1.239 c0.257-0.266,0.671-0.038,0.931,0.217c0.137,0.135,0.202,0.343,0.299,0.518c-0.578,0.198-0.952,0.808-1.628,0.807 C157.538,278.146,157.369,278.007,157.394,277.946z M158.968,297.879c-0.002,0,0.026-0.021,0.026-0.021 c-0.012,0.032,0.007,0.05,0.003,0.078C158.985,297.917,158.983,297.897,158.968,297.879z M159.411,298.789 c-0.085,0.202-0.361,0.049-0.379-0.164c-0.012-0.135,0.025-0.274,0.033-0.411C159.223,298.407,159.518,298.532,159.411,298.789z M160.455,194.996c0.04-0.101,0.209-0.152,0.319-0.226c0.23,0.044,0.473,0.479,0.346,0.67c-0.066,0.1-0.239,0.203-0.346,0.187 C160.409,195.571,160.335,195.301,160.455,194.996z M161.42,307.35c-0.228,0.059-0.388-0.084-0.458-0.307 c-0.045-0.146,0.024-0.273,0.201-0.291c0.206-0.021,0.411,0.02,0.462,0.291C161.564,307.142,161.513,307.326,161.42,307.35z M161.269,270.533c-0.319-0.034-0.529-0.452-0.392-0.773c0.086-0.202,0.283-0.323,0.477-0.23c0.284,0.136,0.622,0.268,0.604,0.663 C161.806,270.51,161.544,270.563,161.269,270.533z M162.243,191.24c-0.345,0.062-0.478-0.206-0.541-0.48 c-0.084-0.366,0.169-0.502,0.465-0.528c0.294-0.025,0.529,0.099,0.589,0.434C162.708,190.961,162.54,191.186,162.243,191.24z M162.706,181.714c-0.291-0.11-0.437-0.374-0.322-0.686c0.036-0.098,0.238-0.217,0.334-0.195c0.291,0.065,0.491,0.252,0.46,0.586 C163.093,181.641,162.917,181.793,162.706,181.714z M163.929,394.711c-0.165-0.025-0.233-0.182-0.129-0.308 c0.066-0.079,0.255-0.142,0.333-0.102c0.086,0.044,0.109,0.213,0.159,0.328C164.17,394.66,164.043,394.729,163.929,394.711z M166.657,365.795c-0.346,0.383-0.792,0.557-1.299,0.554c-0.24-0.001-0.329-0.197-0.38-0.409c-0.047-0.194-0.113-0.383-0.165-0.576 c-0.088-0.325-0.996-0.28-0.468-0.798c0.275-0.27,0.517,0.249,0.71,0.526c0.354,0.509,0.911,0.093,1.344,0.258 c0.105,0.04,0.181,0.158,0.267,0.238C166.665,365.662,166.692,365.757,166.657,365.795z M166.903,277.884 c0.127-0.028,0.257-0.088,0.379-0.074c0.17,0.02,0.239,0.17,0.131,0.297c-0.062,0.073-0.245,0.114-0.332,0.075 C166.994,278.145,166.96,277.989,166.903,277.884z M167.365,279.916c0.255-0.102,0.5-0.238,0.763-0.307 c0.084-0.022,0.279,0.103,0.302,0.193c0.028,0.107-0.038,0.311-0.126,0.361c-0.234,0.134-0.503,0.208-0.725,0.292 c-0.157-0.087-0.304-0.121-0.365-0.213C167.12,280.102,167.201,279.982,167.365,279.916z M169.253,356.385 c-0.216,0.019-0.398-0.04-0.402-0.284c-0.001-0.079,0.155-0.238,0.202-0.224c0.118,0.033,0.229,0.129,0.314,0.225 C169.499,356.25,169.45,356.354,169.253,356.385z M169.028,346.534c-0.217-0.076-0.313-0.289-0.204-0.497 c0.153-0.29,0.43-0.342,0.707-0.197c0.083,0.043,0.098,0.216,0.145,0.329C169.541,346.438,169.356,346.65,169.028,346.534z M169.943,366.157c-0.072-0.111-0.194-0.215-0.202-0.328c-0.031-0.432,0.321-0.351,0.566-0.356c0.077-0.001,0.227,0.165,0.224,0.249 C170.517,366.089,170.198,366.089,169.943,366.157z M168.015,326.988c-0.181,0.064-0.466-0.06-0.481-0.289 c-0.019-0.294,0.192-0.493,0.494-0.55c0.064-0.012,0.136,0.021,0.204,0.033c0.35,0.389,0.718,0.358,1.097,0.046 c0.561,0.141,1.242,0.048,1.501,0.775c0,0,0.053,0.037,0.055,0.038C169.927,327.269,168.986,326.642,168.015,326.988z M172.724,414.141c-0.161-0.04-0.351-0.258-0.389-0.428c-0.051-0.23,0.179-0.334,0.39-0.382c0.231,0.045,0.366,0.189,0.362,0.42 C173.083,413.979,172.946,414.196,172.724,414.141z M173.372,355.113c-0.243-0.02-0.421-0.161-0.412-0.377 c0.017-0.436,0.397-0.506,0.725-0.571c0.075-0.015,0.243,0.14,0.272,0.244C174.047,354.739,173.742,355.081,173.372,355.113z M174.445,339.53c-0.116,0.002-0.258-0.091-0.345-0.182c-0.2-0.21-0.324-0.464-0.195-0.758c0.054-0.122,0.141-0.265,0.251-0.319 c0.229-0.111,0.414,0.009,0.501,0.23c0.076,0.192,0.11,0.4,0.145,0.533C174.778,339.332,174.691,339.526,174.445,339.53z M172.593,337.016c-0.567,0.437-1.042,0.22-1.525-0.412c1.089-0.425,2.238-0.755,2.863-1.83c0.176,0.411,0.503,0.5,0.907,0.426 C174.09,335.807,173.355,336.429,172.593,337.016z M173.96,333.924c-0.074-0.264,0.03-0.421,0.29-0.485 C174.154,333.6,174.057,333.762,173.96,333.924z M174.981,334.481c-0.298-0.332-0.048-0.983-0.66-1.13 c0.012-0.228,0.119-0.395,0.352-0.407c0.218-0.011,0.431,0.129,0.432,0.331C175.107,333.676,175.027,334.079,174.981,334.481z M180.848,395.242c-0.082,0.223-0.18,0.523-0.52,0.375c-0.131-0.057-0.232-0.321-0.238-0.495c-0.009-0.237,0.224-0.314,0.421-0.29 C180.704,394.855,180.924,394.92,180.848,395.242z M181.125,327.735c-1.062,0.095-2.148,0.197-3.163-0.166 c-0.748-0.267-1.264-0.081-1.632,0.517c-0.406,0.659-0.91,0.617-1.605,0.613c-0.736-0.005-0.658-0.545-0.915-0.844 c-0.026-0.014-0.055-0.008-0.081-0.025c0,0,0.047-0.028,0.046-0.028c0.016,0.015,0.021,0.037,0.035,0.053 c0.291,0.153,0.601,0.125,0.914,0.088c0.439-0.051,0.684-0.197,0.81-0.714c0.223-0.912,0.293-0.883,1.254-0.645 c0.396,0.098,0.808,0.137,1.212,0.203c0.076,0.188,0.11,0.502,0.235,0.544c0.85,0.282,1.729,0.403,2.593,0.074 c0.098-0.037,0.085-0.368,0.124-0.563c0.357-0.042,0.505,0.161,0.547,0.476C181.537,327.598,181.335,327.716,181.125,327.735z M180.743,308.158c-0.015-0.03,0.047-0.118,0.093-0.158c0.103-0.089,0.206-0.194,0.329-0.241c0.381-0.146,0.786-0.336,1.119,0.072 c0.061,0.075,0.028,0.276-0.026,0.388c-0.185,0.386-0.556,0.323-0.894,0.331c-0.134-0.026-0.286-0.022-0.396-0.089 C180.867,308.401,180.801,308.27,180.743,308.158z M182.666,367.773c-0.195,0.279-0.461,0.19-0.682-0.011 c-0.098-0.09-0.175-0.202-0.262-0.304c0.055-0.185,0.111-0.369,0.166-0.553c0.187,0.071,0.385,0.121,0.557,0.218 C182.701,367.266,182.851,367.508,182.666,367.773z M185.415,289.285c0.333-0.155,0.229-0.469,0.235-0.738 c0.578,0.548,0.613,0.59,0.076,1.034c-0.32,0.264-0.604,0.375-0.018,0.605c0.392,0.154,0.561,0.411,0.305,0.8 c-0.213,0.324-0.458,0.628-0.705,0.962c-0.088-0.971-0.52-1.703-1.283-2.244C184.561,289.804,184.973,289.491,185.415,289.285z M184.251,278.919c-0.174-0.003-0.348-0.005-0.522-0.007C183.906,278.732,184.08,278.732,184.251,278.919z M182.959,278.91 c-0.155,0.138-0.31,0.276-0.466,0.413c-0.488,0.017-0.978,0.06-1.464,0.039c-0.212-0.009-0.364-0.198-0.36-0.442 c0.003-0.222,0.103-0.468,0.316-0.463C181.668,278.473,182.409,278.299,182.959,278.91z M205.05,134.8 c0.018-0.055,0.083-0.108,0.14-0.133c0.057-0.025,0.153-0.044,0.192-0.013c0.767,0.59,1.558,0.428,2.372,0.117 c0.141-0.054,0.245,0.109,0.204,0.264c-0.016,0.061-0.054,0.142-0.104,0.166c-0.244,0.114-0.496,0.211-0.539,0.229 c-0.949,0.064-1.592-0.212-2.247-0.431C205.041,134.99,205.03,134.86,205.05,134.8z M200.104,171.519 c-0.043-0.05-0.085-0.1-0.127-0.149c0.053-0.039,0.109-0.112,0.157-0.107c0.048,0.005,0.086,0.09,0.129,0.14 C200.21,171.441,200.157,171.48,200.104,171.519z M208.766,192.216c-0.009,0.026-0.137,0.156-0.366,0.083 c-0.185-0.059-0.391-0.135-0.301-0.401c0.065-0.19,0.165-0.376,0.417-0.289C208.706,191.675,208.874,191.784,208.766,192.216z M250.791,264.765c-0.138,0.021-0.279,0.019-0.419,0.028c-0.139-0.013-0.289,0.002-0.413-0.048 c-0.114-0.046-0.245-0.142-0.289-0.249c-0.096-0.235,0.092-0.38,0.25-0.503c0.312-0.243,0.665-0.223,0.977-0.034 c0.158,0.096,0.332,0.304,0.344,0.472C251.256,264.659,251,264.733,250.791,264.765z M276.13,235.211 c-0.071-0.017-0.157-0.217-0.139-0.317c0.038-0.21,0.198-0.312,0.433-0.254c0.043,0.088,0.15,0.204,0.133,0.296 C276.517,235.149,276.333,235.259,276.13,235.211z M277.18,201.015c-0.103,0-0.284-0.111-0.294-0.19 c-0.03-0.219,0.117-0.385,0.333-0.401c0.093-0.007,0.198,0.126,0.296,0.195C277.511,200.844,277.413,201.015,277.18,201.015z M247.704,303.475l0.025-0.044c0.596,0.713,1.184,1.442,1.812,2.093C248.913,304.871,248.3,304.189,247.704,303.475z M185.123,146.649c-0.002,0.003-0.005,0.006-0.007,0.01c-0.266-0.068-0.534-0.134-0.802-0.201 C184.58,146.525,184.859,146.582,185.123,146.649z M13.848,71.642c-0.505,0.919-0.981,1.893-1.452,2.875l-0.035,0.006 C12.837,73.528,13.336,72.573,13.848,71.642z M124.921,137.196c-0.072-0.007-0.144-0.013-0.216-0.019c0,0,0-0.001,0-0.002 C124.776,137.181,124.85,137.189,124.921,137.196z M161.83,82.376c9.979,3.014,18.304,7.329,23.068,11.533 c0.018,0.016,0.04,0.031,0.058,0.047l5.758-19.064c-3.342-2.965-8.487-5.979-14.713-8.564c-0.037,0.067-0.054,0.135-0.117,0.201 c-0.284,0.293-0.71,0.509-0.84,0.299c-0.177-0.286-0.033-0.503,0.132-0.743c0.017-0.025,0.034-0.056,0.052-0.082 c-2.407-0.971-4.957-1.88-7.639-2.69c-10.016-3.025-19.374-4.039-25.669-3.157l-4.972,16.25l-0.936,3.061c0.001,0,0.001,0,0.002,0 C142.308,78.584,151.814,79.351,161.83,82.376z M176.669,75.371c0.204-0.013,0.411,0.028,0.617,0.044 c0.137,0.011,0.276,0.014,0.411,0.035c0.181,0.029,0.259,0.148,0.182,0.313c-0.053,0.114-0.144,0.262-0.247,0.291 c-0.266,0.075-0.55,0.08-0.822,0.137c-0.253,0.053-0.508,0.244-0.717-0.084C175.959,75.895,176.332,75.393,176.669,75.371z M165.62,68.979c-0.235,0.041-0.355-0.118-0.398-0.321c-0.053-0.248,0.123-0.346,0.319-0.396c0.265-0.068,0.319,0.141,0.382,0.314 C165.976,68.835,165.823,68.943,165.62,68.979z M165.895,65.755c0.293,0.278,0.289,0.652,0.107,0.977 c-0.087,0.156-0.319,0.231-0.474,0.335c-0.138-0.118-0.278-0.185-0.326-0.293c-0.052-0.118-0.048-0.282-0.014-0.411 C165.294,65.968,165.731,65.6,165.895,65.755z M165.101,72.025c0.052-0.175,0.161-0.226,0.302-0.162 c0.277,0.137,0.438,0.351,0.335,0.661c-0.071,0.214-0.314,0.35-0.483,0.248C164.991,72.613,165.019,72.302,165.101,72.025z M156.009,74.586c0.448-0.255,0.95-0.255,1.444-0.256c0.567-0.001,1.134,0.023,1.7,0.036c0,0.008,0,0.017,0,0.025 c0.567,0.013,1.134,0.041,1.7,0.035c0.59-0.006,1.113,0.165,1.58,0.519c0.145,0.109,0.162,0.232,0.058,0.363 c-0.042,0.054-0.071,0.125-0.123,0.163c-0.373,0.27-0.809,0.26-1.229,0.211c-1.677-0.195-3.35-0.419-5.044-0.401 c-0.224,0.002-0.394-0.179-0.375-0.405C155.729,74.772,155.891,74.654,156.009,74.586z M146.623,61.096 c0.018-0.078,0.222-0.121,0.348-0.159c0.019-0.006,0.073,0.103,0.112,0.16c-0.039,0.203-0.078,0.407-0.116,0.61 c-0.031,0.167-0.128,0.246-0.28,0.195c-0.037-0.013-0.054-0.123-0.059-0.191C146.614,61.505,146.578,61.29,146.623,61.096z M146.392,67.43c0.296,0.028,0.587,0.254,0.538,0.529c-0.081,0.452-0.308,0.879-0.483,1.34c-0.333-0.437-0.657-0.826-0.591-1.358 C145.891,67.65,146.057,67.399,146.392,67.43z M159.655,75.086c0.715-0.385,1.443-0.422,2.281,0.013 C161.11,75.489,160.392,75.331,159.655,75.086z" fill="#00bf63"/></g><g id="change5_1"><path d="M166.075,142.611c0.191,0.052,0.379,0.144,0.291,0.405c-0.063,0.186-0.132,0.409-0.413,0.302 c-0.197-0.075-0.357-0.192-0.337-0.444c0.066-0.212,0.215-0.318,0.433-0.267c-6.677-1.199-13.494-2.245-20.286-3.123 c-0.01-0.001-0.019-0.003-0.029-0.004c-2.725-0.352-5.443-0.68-8.14-0.986c0.292,8.227,1.492,20.161,5.63,29.101 c0,0,15.327-10.561,26.919-24.251C168.801,143.084,167.432,142.855,166.075,142.611z M167.583,144.377 c-0.337-0.017-0.48-0.236-0.483-0.533c-0.003-0.333,0.213-0.483,0.527-0.419c0.315,0.064,0.428,0.308,0.393,0.611 C167.991,144.282,167.805,144.361,167.583,144.377z M72.043,134.089c0.117,0.063,0.16,0.209,0.097,0.327 c-7.217,13.372-14.256,21.379-14.325,21.458c-0.048,0.054-0.114,0.081-0.181,0.081c-0.057,0-0.114-0.02-0.16-0.06 c-0.1-0.089-0.108-0.241-0.021-0.341c0.07-0.078,7.074-8.048,14.263-21.368C71.779,134.069,71.925,134.026,72.043,134.089z M131.509,98.844c-0.11,0-0.209-0.075-0.235-0.187c-0.03-0.13,0.051-0.26,0.18-0.29c0.11-0.025,11.059-2.568,17.126-4.64 c0.131-0.045,0.264,0.025,0.307,0.15c0.043,0.126-0.024,0.264-0.15,0.307c-6.09,2.081-17.063,4.628-17.173,4.653 C131.544,98.842,131.526,98.844,131.509,98.844z M130.982,95.314c-0.108,0-0.205-0.072-0.234-0.18 c-0.034-0.129,0.043-0.261,0.173-0.295c0.068-0.017,6.842-1.8,12.912-3.873c0.13-0.045,0.264,0.025,0.307,0.15 c0.043,0.126-0.024,0.264-0.15,0.307c-6.087,2.08-12.878,3.867-12.946,3.885C131.023,95.312,131.002,95.314,130.982,95.314z M181.949,101.343c-0.004,0-0.008,0-0.013,0c-0.132-0.008-0.234-0.121-0.228-0.254c0.221-4.34,0.006-5.624,0.004-5.636 c-0.023-0.131,0.064-0.257,0.194-0.28c0.14-0.021,0.258,0.065,0.281,0.194c0.009,0.052,0.228,1.323,0.004,5.747 C182.183,101.243,182.077,101.343,181.949,101.343z" fill="#f1f1ee"/></g></svg>