<?xml version="1.0" encoding="UTF-8"?><svg xmlns="http://www.w3.org/2000/svg" xmlns:xlink="http://www.w3.org/1999/xlink" height="56.0" preserveAspectRatio="xMidYMid meet" version="1.0" viewBox="4.0 4.1 56.0 56.0" width="56.0" zoomAndPan="magnify"><g id="change1_1"><path d="M33 48H39V60H33z" fill="inherit"/></g><g id="change1_2"><path d="M25 48H31V60H25z" fill="inherit"/></g><g id="change1_3"><path d="M32,16a1,1,0,0,1-.3-.05L20,12.26v8L32,24l12-3.69v-8L32.3,16A1,1,0,0,1,32,16Z" fill="inherit"/></g><g id="change1_4"><path d="M17 9.58L32 13.95 49 9 32 4.05 15 9 15 9 15 9 15 22.5 14 23 14 28 18 28 18 23 17 22.5 17 9.58z" fill="inherit"/></g><g id="change1_5"><path d="M32,26a.92.92,0,0,1-.29,0L20,22.35V60h3V47a1,1,0,0,1,1-1H40a1,1,0,0,1,1,1V60h3V22.35L32.29,26A.92.92,0,0,1,32,26ZM30,43H24V39h6Zm0-8H24V31h6Zm4-4h6v4H34Zm0,8h6v4H34Z" fill="inherit"/></g><g id="change1_6"><path d="M46,36V60H60V36ZM56,51H50V47h6Zm0-8H50V39h6Z" fill="inherit"/></g><g id="change1_7"><path d="M4,60H18V36H4ZM8,39h6v4H8Zm0,8h6v4H8Z" fill="inherit"/></g></svg>